<svg id="Layer_1" data-name="Layer 1" xmlns="http://www.w3.org/2000/svg" viewBox="0 0 800 800"><defs><style>.cls-1{fill:#fff;}</style></defs><path class="cls-1" d="M626.84,299.52,499.42,172.1c-23.12-23.12-58,15.12-69,33.68-17,28.83-36.94,28.64-53.18,0-10.5-18.51-46.29-56.39-69-33.71L180.85,299.52c-22.33,22.33,14,58.81,33.71,69q2.37,1.23,4.85,2.37c41.9,19.23,91.26,9.89,125-21.47q3.53-3.28,7-6.74c12.24-12.4,22.53-24.74,30.8-39.72,1.27-2.31,2.36-4.72,3.47-7.12,7.67-16.57,28.73-15.39,36.58.78,2.07,4.26,4.31,8.44,6.79,12.47a180.35,180.35,0,0,0,27.23,33.59c2.57,2.53,5.13,5,7.71,7.34,32.84,30.06,80.14,39.89,121.07,22.38,2.81-1.2,5.51-2.5,8.09-3.88C612.41,358.2,649.1,321.78,626.84,299.52Z"/><path class="cls-1" d="M180.85,490.66,308.27,618.09c23.12,23.12,58-15.12,69-33.69,17-28.83,36.94-28.63,53.18,0,10.5,18.5,46.29,56.39,69,33.71L626.84,490.66c22.33-22.33-14-58.81-33.71-69q-2.37-1.21-4.85-2.36c-41.9-19.24-91.26-9.9-125,21.47q-3.53,3.27-7,6.74c-12.24,12.4-22.53,24.73-30.8,39.72-1.28,2.31-2.36,4.72-3.47,7.12-7.67,16.57-28.73,15.38-36.58-.79-2.07-4.25-4.31-8.43-6.79-12.46a180.76,180.76,0,0,0-27.23-33.59c-2.57-2.53-5.13-5-7.71-7.35-32.84-30.05-80.14-39.88-121.07-22.37-2.81,1.2-5.51,2.5-8.09,3.88C195.28,432,158.59,468.41,180.85,490.66Z"/><path class="cls-1" d="M194.32,635.11a27.36,27.36,0,0,1-14.17-3.74A28.88,28.88,0,0,1,170,621.27a27.83,27.83,0,0,1,0-28.18A28.8,28.8,0,0,1,180.15,583a27.37,27.37,0,0,1,14.17-3.75A26.61,26.61,0,0,1,208.25,583a28.36,28.36,0,0,1,10,10.1,28.34,28.34,0,0,1,0,28.18,28.44,28.44,0,0,1-10,10.1A26.61,26.61,0,0,1,194.32,635.11Zm0-4.07a22.74,22.74,0,0,0,12.06-3.26,24,24,0,0,0,8.47-8.63,23.43,23.43,0,0,0,3.09-11.89,24.22,24.22,0,0,0-3.09-12.14,23.15,23.15,0,0,0-20.53-11.81,23.5,23.5,0,0,0-12.21,3.18,23.76,23.76,0,0,0-11.73,20.77,23,23,0,0,0,3.17,11.89,24.56,24.56,0,0,0,8.56,8.63A23,23,0,0,0,194.32,631Zm-10.75-9.61v-30h10.26q5.86,0,9,1.95t3.17,6.84a9.11,9.11,0,0,1-1.87,5.71c-1.25,1.62-3.23,2.44-6,2.44q3.42,0,4.48,1.79a9.15,9.15,0,0,1,1.22,4.07,14.16,14.16,0,0,0,.66,3.67c.32.92,1.24,1.11,2.77.57v2.6a4.74,4.74,0,0,1-2.69,1,3.71,3.71,0,0,1-3-1.06c-.87-.81-1.3-2.3-1.3-4.48a14.72,14.72,0,0,0-.73-5.53c-.49-1.09-1.61-1.74-3.34-2a62.2,62.2,0,0,0-8.47-.16v12.54Zm4.24-15.8h6.35a15.25,15.25,0,0,0,6-.9c1.3-.59,1.95-2,1.95-4.15,0-2.5-.81-4-2.44-4.64a20.54,20.54,0,0,0-6.84-.9h-5.05Z"/></svg>