<svg id="Layer_1" data-name="Layer 1" xmlns="http://www.w3.org/2000/svg" viewBox="0 0 1221.68 500"><defs><style>.cls-1{fill:#14123a;}</style></defs><path class="cls-1" d="M299.84,207.1l-54.4-54.4c-9.87-9.87-24.78,6.46-29.45,14.38-7.26,12.31-15.77,12.23-22.71,0-4.48-7.9-19.76-24.08-29.45-14.39l-54.4,54.4c-9.53,9.54,6,25.11,14.39,29.45.68.35,1.37.69,2.07,1,17.89,8.21,39,4.23,53.39-9.16q1.5-1.41,3-2.88a76.77,76.77,0,0,0,13.15-17c.54-1,1-2,1.48-3,3.27-7.07,12.26-6.57,15.62.34.88,1.81,1.84,3.6,2.9,5.32A77,77,0,0,0,227,225.52q1.64,1.62,3.29,3.13c14,12.84,34.22,17,51.69,9.56,1.2-.52,2.35-1.07,3.46-1.66C293.68,232.15,309.34,216.6,299.84,207.1Z"/><path class="cls-1" d="M109.43,288.71l54.4,54.4c9.87,9.87,24.78-6.46,29.45-14.38,7.25-12.31,15.77-12.23,22.7,0,4.49,7.9,19.77,24.08,29.45,14.39l54.41-54.4c9.53-9.54-6-25.11-14.39-29.45-.68-.35-1.37-.69-2.07-1-17.89-8.21-39-4.23-53.39,9.16-1,.94-2,1.9-3,2.88a76.47,76.47,0,0,0-13.15,17c-.54,1-1,2-1.48,3-3.27,7.07-12.27,6.57-15.62-.34-.88-1.81-1.84-3.6-2.9-5.32a77,77,0,0,0-11.62-14.34c-1.1-1.08-2.19-2.12-3.3-3.13-14-12.84-34.21-17-51.68-9.56-1.2.52-2.36,1.07-3.46,1.66C115.59,263.66,99.93,279.21,109.43,288.71Z"/><path class="cls-1" d="M442.68,186.55q-19.38-7.73-45.64-7.73H359V317h38q26.25,0,45.64-5.89t30.07-21q10.67-15.11,10.67-42.34,0-23.06-10.67-38.28T442.68,186.55Zm10.43,85.53a32,32,0,0,1-10.55,14.85A41.83,41.83,0,0,1,426,294.29a103.18,103.18,0,0,1-21.84,2.08H383.78v-96h20.37q16.2,0,28,5.27a39.8,39.8,0,0,1,18.16,15.71q6.38,10.44,6.38,26.14Q456.67,262.51,453.11,272.08Z"/><path class="cls-1" d="M572,219.07a49.86,49.86,0,0,0-24.29-5.89q-15.22,0-26.39,6.75a45,45,0,0,0-17.17,18.65q-6,11.91-5.77,27.12a62.29,62.29,0,0,0,5.52,24.54,45.56,45.56,0,0,0,16.2,19.26Q531,317,548.45,317q14,0,24-5a41.15,41.15,0,0,0,16-13.62,39.87,39.87,0,0,0,6.88-19.15H571a18.44,18.44,0,0,1-7.49,12.28q-6.25,4.66-15.58,4.66-11.78,0-18.77-7.49t-7-21.47h73.38v-6.38q-.24-14.73-6.5-25.28A44,44,0,0,0,572,219.07Zm-49.08,36.81a28.6,28.6,0,0,1,1.47-6.38,31.26,31.26,0,0,1,3.68-7.36A18.89,18.89,0,0,1,535.2,236q4.66-2.44,12-2.45t12,2.7a20,20,0,0,1,7.12,6.62,23.14,23.14,0,0,1,3.19,7.61c.49,2.46.81,4.26,1,5.4Z"/><path class="cls-1" d="M708.33,241.77A37,37,0,0,0,702.81,229a29.16,29.16,0,0,0-10.67-9.33q-6.75-3.56-17.55-3.56-9.83,0-16.32,3.07A32.6,32.6,0,0,0,648,226.43a33.08,33.08,0,0,0-5.4,7.49c-1.06,2.21-1.68,3.56-1.84,4.05h-.49l-4.17-21.85H614.71V317h25.52v-48.1a53,53,0,0,1,2-14.73,23.42,23.42,0,0,1,7.11-11.41q5.16-4.53,15-4.54,9.57,0,14.11,4.17a21,21,0,0,1,6.14,10.8,63.22,63.22,0,0,1,1.59,14.73V317h24.55V268.15q0-5.64-.37-12.51A81.85,81.85,0,0,0,708.33,241.77Z"/><path class="cls-1" d="M761.46,233.79h23.07V216.12H761.46V190.36H741.34a80.6,80.6,0,0,1-1,14.23c-.66,3.44-1.68,6-3.07,7.61a9.64,9.64,0,0,1-5.52,3.19,43.6,43.6,0,0,1-8.84.73v17.67h15.22V292q0,13.25,6,19.14t18,5.89H785V297.36H761.46Z"/><path class="cls-1" d="M846.62,213.67q-16.93,0-28.34,6.63a41.76,41.76,0,0,0-17.06,18.28q-5.64,11.65-5.64,26.87,0,15,5.64,26.63a41.82,41.82,0,0,0,17.06,18.28q11.4,6.63,28.34,6.63,17.43,0,28.59-6.75a41.32,41.32,0,0,0,16.57-18.53,62.41,62.41,0,0,0,5.4-26.26q0-23.31-12.89-37.55T846.62,213.67Zm24.3,65.65a22.52,22.52,0,0,1-7.73,11.9q-5.78,4.66-16.81,4.66-10.8,0-16.57-4.66a23.2,23.2,0,0,1-7.85-11.9,53.43,53.43,0,0,1-2.09-14.85A52.06,52.06,0,0,1,822,249.75a23.9,23.9,0,0,1,7.85-11.91q5.76-4.78,16.57-4.78,11,0,16.81,4.78a23.17,23.17,0,0,1,7.73,11.91,55,55,0,0,1,2,14.72A56.47,56.47,0,0,1,870.92,279.32Z"/><polygon class="cls-1" points="957.79 296.37 957.3 296.37 929.08 216.12 905.03 216.12 905.03 220.54 939.63 316.99 974.48 316.99 1009.08 220.3 1009.08 216.12 984.54 216.12 957.79 296.37"/><path class="cls-1" d="M1092.76,213.67v20.12h-.49a36.35,36.35,0,0,0-2.7-5.27,30,30,0,0,0-5.76-6.75,33.4,33.4,0,0,0-9.82-5.89,39.35,39.35,0,0,0-14.85-2.46q-13.74,0-22.21,6.51t-12.39,18.28a86,86,0,0,0-3.93,27.24,86.4,86.4,0,0,0,3.81,26.87q3.8,11.67,12.39,18.16t22.33,6.51a42.57,42.57,0,0,0,14.6-2.21,31.12,31.12,0,0,0,9.82-5.52,38.58,38.58,0,0,0,6-6.38,17.5,17.5,0,0,0,2.7-4.79h.49l4.18,16.44h21.59V213.67Zm-2,67.37a20.07,20.07,0,0,1-7.12,10.92q-5.15,3.93-14.23,3.92-9.57,0-14.85-4.05a21,21,0,0,1-7.36-10.92,52.23,52.23,0,0,1-2.09-15.21,51.13,51.13,0,0,1,2.09-15.1,21.79,21.79,0,0,1,7.36-10.92q5.28-4.17,14.85-4.17,9.08,0,14.11,3.81a20.3,20.3,0,0,1,7.12,10.55,53.86,53.86,0,0,1,2.08,15.83A56.65,56.65,0,0,1,1090.8,281Z"/><path class="cls-1" d="M115.18,350.38a11.67,11.67,0,0,1-6.05-1.6,12.3,12.3,0,0,1-4.35-4.31,11.91,11.91,0,0,1,0-12,12.33,12.33,0,0,1,4.35-4.32,11.77,11.77,0,0,1,6.05-1.6,11.46,11.46,0,0,1,5.95,1.6,12.11,12.11,0,0,1,4.27,4.32,12.11,12.11,0,0,1,0,12,12.08,12.08,0,0,1-4.27,4.31A11.36,11.36,0,0,1,115.18,350.38Zm0-1.74a9.72,9.72,0,0,0,5.15-1.39,10.21,10.21,0,0,0,3.61-3.69,10,10,0,0,0,1.32-5.07,10.32,10.32,0,0,0-1.32-5.18,9.76,9.76,0,0,0-3.61-3.69,9.89,9.89,0,0,0-5.15-1.36,10,10,0,0,0-8.87,5.05,10.14,10.14,0,0,0-1.35,5.18,9.82,9.82,0,0,0,1.35,5.07,10.57,10.57,0,0,0,3.65,3.69A9.85,9.85,0,0,0,115.18,348.64Zm-4.59-4.1v-12.8H115a7.45,7.45,0,0,1,3.86.83,3.15,3.15,0,0,1,1.36,2.93,3.92,3.92,0,0,1-.8,2.43,3,3,0,0,1-2.54,1,2,2,0,0,1,1.91.77,3.85,3.85,0,0,1,.52,1.74,6.17,6.17,0,0,0,.28,1.56c.14.4.53.48,1.18.25v1.11a2,2,0,0,1-1.14.41,1.57,1.57,0,0,1-1.29-.45,2.56,2.56,0,0,1-.56-1.91,6.26,6.26,0,0,0-.31-2.36,1.61,1.61,0,0,0-1.42-.84,28.53,28.53,0,0,0-3.62-.07v5.36Zm1.81-6.75h2.71a6.57,6.57,0,0,0,2.57-.38q.84-.39.84-1.77c0-1.07-.35-1.73-1-2a9,9,0,0,0-2.93-.38H112.4Z"/></svg>