<svg id="Layer_1" data-name="Layer 1" xmlns="http://www.w3.org/2000/svg" viewBox="0 0 1000 1000"><defs><style>.cls-1{fill:#8976c4;}</style></defs><path class="cls-1" d="M45.53,896.63s1.32.34,3.51,1.09c1.09.39,2.44.83,3.92,1.44a35.14,35.14,0,0,1,4.92,2.22c1.78.91,3.72,1.9,5.72,3s3.94,2.55,6,4a56.55,56.55,0,0,1,6.07,4.71c2,1.71,3.94,3.51,5.9,5.32,2,2.13,3.56,3.86,5.28,5.84a58.28,58.28,0,0,1,4.7,6.06c1.44,2.07,2.87,4.06,4,6s2.11,3.91,3,5.69a35.3,35.3,0,0,1,2.24,4.94c.62,1.5,1.07,2.86,1.45,4,.76,2.2,1.08,3.51,1.08,3.51s-1-.89-2.68-2.52c-.82-.82-1.83-1.8-2.89-3s-2.33-2.43-3.67-3.81-2.79-2.88-4.25-4.5-3.12-3.15-4.7-4.86l-2.4-2.6c-.79-.87-1.77-1.75-2.64-2.66-1.76-1.73-3.7-3.78-5.25-5.42-1.82-1.73-3.64-3.45-5.37-5.21s-3.51-3.43-5.23-5-3.36-3.24-4.92-4.75-3.09-2.88-4.46-4.22-2.64-2.61-3.85-3.68-2.17-2.08-3-2.9C46.41,897.66,45.53,896.63,45.53,896.63Z"/><path class="cls-1" d="M45.53,866.21s2,.48,5.37,1.5c1.7.49,3.74,1.17,6.06,2s4.95,1.87,7.71,3.16,5.76,2.72,8.85,4.39S79.81,880.87,83,883a113.47,113.47,0,0,1,9.52,7.1c3.22,2.47,6.09,5.43,9.14,8.2,2.89,3.17,5.54,5.71,8.15,9.08A109.68,109.68,0,0,1,117,917c2.16,3.18,4,6.41,5.73,9.47s3.21,6,4.39,8.85a82.16,82.16,0,0,1,3.14,7.71c.88,2.3,1.57,4.35,2.06,6.06,1,3.4,1.5,5.38,1.5,5.38s-1.23-1.64-3.2-4.56L127,944.68c-1.34-2-3-4.25-4.65-6.67s-3.67-5-5.6-7.73-4.25-5.46-6.54-8.3c-1.17-1.4-2.35-2.83-3.56-4.27s-2.49-2.77-3.72-4.19c-2.33-2.76-5.46-5.78-8-8.48-2.83-2.65-5.51-5.47-8.42-7.94-1.45-1.24-2.8-2.57-4.25-3.78s-2.87-2.38-4.26-3.55c-2.85-2.29-5.62-4.51-8.31-6.54s-5.26-4-7.72-5.61-4.65-3.3-6.66-4.64L50.1,869.4C47.16,867.44,45.53,866.21,45.53,866.21Z"/><path class="cls-1" d="M45.53,837.85s2.64.59,7.2,1.82c2.28.59,5,1.41,8.16,2.45l5,1.64,5.44,2.1c3.83,1.39,7.84,3.28,12.08,5.28,2.15,1,4.21,2.21,6.4,3.34a74.05,74.05,0,0,1,6.54,3.82l6.58,4.28c2.21,1.47,4.29,3.18,6.43,4.85l3.21,2.52c1.05.87,2,1.83,3.05,2.74l6.23,5.69,5.43,5.9c.9,1,1.82,1.93,2.68,3l2.55,3.26c1.68,2.18,3.43,4.3,4.91,6.52l4.28,6.58a73.77,73.77,0,0,1,3.81,6.53c1.14,2.2,2.4,4.26,3.35,6.41,2,4.24,3.9,8.24,5.28,12.08l2.1,5.44c.57,1.76,1.12,3.43,1.63,5,1,3.12,1.86,5.87,2.46,8.17,1.22,4.56,1.82,7.2,1.82,7.2s-1.37-2.35-3.58-6.5c-1.11-2.07-2.47-4.57-4-7.44s-3.35-6.06-5.3-9.52-4.28-7.09-6.56-11c-1.12-2-2.54-3.82-3.84-5.8s-2.54-4.05-4.07-6l-4.45-6c-1.54-2-3.21-3.82-4.79-5.79l-2.41-2.92c-.86-1-1.82-1.92-2.72-2.9l-5.48-5.85-5.53-5.23c-.94-.88-1.85-1.8-2.83-2.64l-3-2.45c-2-1.58-3.87-3.31-5.87-4.84l-6-4.45c-1.92-1.53-4-2.71-6-4.08S82,858.41,80,857.29c-3.91-2.28-7.49-4.66-11-6.55s-6.63-3.8-9.51-5.3-5.34-3-7.44-4C47.87,839.2,45.53,837.85,45.53,837.85Z"/><path class="cls-1" d="M45.53,810.38s3.28.77,9,2.26c2.84.74,6.29,1.69,10.21,2.88L71,817.4l6.87,2.36c4.83,1.55,9.91,3.68,15.29,5.93,2.73,1,5.37,2.53,8.16,3.83a88.1,88.1,0,0,1,8.34,4.41L118,839c2.81,1.75,5.45,3.84,8.18,5.85l4.08,3c1.32,1.07,2.56,2.26,3.85,3.4l7.68,6.89,6.85,7.62c1.11,1.26,2.24,2.44,3.31,3.75l3.11,4.15c2,2.75,4.19,5.45,5.94,8.27s3.39,5.63,5,8.39a86.9,86.9,0,0,1,4.41,8.34c1.3,2.79,2.78,5.43,3.83,8.15,2.25,5.39,4.39,10.47,5.93,15.3L182.6,929c.66,2.2,1.28,4.3,1.87,6.26,1.19,3.92,2.14,7.37,2.88,10.21,1.49,5.7,2.26,9,2.26,9s-1.52-3-4-8.33c-1.24-2.65-2.76-5.88-4.5-9.57s-3.69-7.84-5.86-12.33S170.5,915,168,909.94c-1.23-2.57-2.87-5-4.34-7.54s-2.87-5.27-4.68-7.74-3.44-5.12-5.19-7.74-3.86-4.89-5.72-7.43l-2.89-3.76c-1-1.24-2.24-2.45-3.35-3.67l-6.66-7.2L128,858.25c-1.2-1.08-2.34-2.23-3.58-3.27l-3.8-2.93c-2.58-1.9-5-4-7.54-5.81l-7.74-5.2c-2.48-1.8-5.23-3.11-7.73-4.68s-5-3.11-7.54-4.33c-5.07-2.55-9.76-5.21-14.3-7.28s-8.61-4.18-12.32-5.86l-9.58-4.49C48.54,811.9,45.53,810.38,45.53,810.38Z"/><path class="cls-1" d="M45.53,782.79l10.65,3.05c6.75,2,16.44,4.64,28,8.36,5.76,1.88,12,3.92,18.5,6.55a187.4,187.4,0,0,1,20.12,9,157.67,157.67,0,0,1,20.3,12.39,172.34,172.34,0,0,1,18.84,15.9c2.92,3.21,5.56,5.73,8.26,9.12,1.33,1.6,2.7,3.19,4,4.81l3.67,4.9a155.8,155.8,0,0,1,12.38,20.3c1.85,3.38,3.4,6.82,4.95,10.16s2.9,6.69,4.12,10c2.62,6.49,4.66,12.74,6.54,18.5,3.72,11.53,6.37,21.21,8.35,28l3,10.65-1.28-2.6c-.81-1.71-2.1-4.17-3.54-7.39-3-6.4-6.94-15.67-11.67-26.71-2.42-5.5-5-11.45-7.94-17.61s-6.22-12.53-9.89-18.92a186.68,186.68,0,0,0-12.44-18.89l-3.52-4.59c-1.21-1.49-2.47-2.9-3.71-4.36-2.3-2.87-5.51-5.89-8-8.61a161.83,161.83,0,0,0-17.56-15.23,185.8,185.8,0,0,0-18.89-12.46c-6.39-3.66-12.74-7-18.92-9.89s-12.11-5.52-17.6-7.93c-11-4.74-20.31-8.7-26.72-11.68-3.22-1.42-5.68-2.71-7.39-3.52Z"/><path class="cls-1" d="M45.53,754l3.18,1.17c2.07.76,5.11,1.93,9,3.25s8.61,2.89,14,4.7l18.34,5.78c6.72,2.15,14,4.41,21.69,7.23a237.31,237.31,0,0,1,23.82,9.79,171.94,171.94,0,0,1,24.15,13.73c1.93,1.39,3.88,2.77,5.83,4.16s3.74,3,5.62,4.51l2.81,2.28,2.67,2.46,5.43,5,4.79,5.17,2.39,2.59,2.32,2.85c1.53,1.91,3.12,3.78,4.57,5.7s2.78,3.89,4.16,5.83a170,170,0,0,1,13.75,24.15,237,237,0,0,1,9.78,23.81c2.82,7.65,5.09,15,7.23,21.7s4,12.87,5.78,18.33,3.31,10.18,4.7,14,2.48,6.9,3.24,9l1.17,3.18-1.64-3c-1-2-2.73-4.74-4.5-8.47s-4-8.22-6.36-13.49-4.87-11.23-7.5-17.77-5.55-13.59-8.7-21-6.69-15-10.66-22.68a194.59,194.59,0,0,0-13.79-22.64l-4-5.46c-1.38-1.77-2.84-3.45-4.26-5.18l-2.14-2.59-2.4-2.55-4.84-5.13a165.81,165.81,0,0,0-20.69-17.42,192.93,192.93,0,0,0-22.64-13.79c-7.67-4-15.3-7.53-22.68-10.67s-14.44-6-21-8.69-12.51-5.19-17.78-7.5S60.65,762,57,760.16s-6.5-3.46-8.45-4.5Z"/><path class="cls-1" d="M45.53,722.86,49,724.62c2.28,1.12,5.56,3,9.9,4.82,2.16.95,4.5,2.08,7.13,3.16l8.52,3.45c6.15,2.32,13.14,4.78,20.81,7.38s16.06,5.19,24.91,8.24,18.2,6.32,27.64,10.5a189.39,189.39,0,0,1,28.25,15l6.81,4.64c2.24,1.62,4.37,3.4,6.56,5.09l3.28,2.59,3.08,2.81,6.3,5.79,5.49,6,2.74,3,2.62,3.32c1.73,2.21,3.55,4.39,5.17,6.65s3.1,4.55,4.64,6.81a188,188,0,0,1,15,28.24c4.18,9.44,7.5,18.8,10.5,27.65s5.7,17.21,8.24,24.91,5.06,14.65,7.38,20.8l3.44,8.53c1.09,2.63,2.22,5,3.17,7.14,1.88,4.35,3.69,7.6,4.81,9.89s1.76,3.48,1.76,3.48l-2.2-3.22c-1.39-2.13-3.71-5.1-6-9.27-1.19-2.06-2.6-4.31-4-6.83s-2.76-5.31-4.29-8.27l-4.52-9.57-4.63-10.77c-3.12-7.54-6.37-15.75-9.78-24.37s-7.21-17.6-11.46-26.64a209.48,209.48,0,0,0-15-26.66c-1.49-2.13-3-4.27-4.46-6.41s-3.21-4-4.81-6.05l-2.41-3-2.76-3-5.55-5.94-5.62-5.25-2.89-2.68-3.06-2.47c-2.05-1.62-4-3.33-6.14-4.87l-6.4-4.46a206.58,206.58,0,0,0-26.67-15c-9-4.25-18-8-26.64-11.47s-16.83-6.66-24.37-9.78c-3.75-1.59-7.37-3.11-10.77-4.62l-9.58-4.52q-4.41-2.31-8.26-4.29c-2.53-1.38-4.78-2.79-6.85-4-4.17-2.31-7.11-4.62-9.25-6Z"/><path class="cls-1" d="M45.53,687.77l3.63,2.6c1.19.84,2.64,1.89,4.36,3.12l2.76,2,3.27,2,7.6,4.65L76.44,707c3.32,1.73,7,3.25,10.82,5s8,3.27,12.24,5c8.65,3.24,18.11,6.5,28.21,9.91s20.82,7,31.73,11.39a214.83,214.83,0,0,1,32.76,16.11c10.76,6.45,20.66,14.62,30,23.37l6.4,7c1,1.15,2.09,2.26,3.11,3.47l3,3.83c1.93,2.58,4,5.08,5.77,7.71l5.14,7.91a213.46,213.46,0,0,1,16.11,32.76c4.42,10.91,8,21.64,11.4,31.73s6.67,19.55,9.9,28.21c1.76,4.25,3.32,8.4,5,12.24s3.29,7.5,5,10.82l4.9,9.3,4.65,7.62,2,3.27,2,2.74c1.23,1.71,2.27,3.17,3.11,4.35l2.61,3.64-3-3.31c-1-1.08-2.19-2.41-3.61-4-.71-.78-1.48-1.63-2.29-2.54L301,941.54l-5.44-7.25c-1.77-2.78-3.7-5.78-5.75-9s-3.85-6.86-6-10.6-3.84-7.89-5.91-12.1c-1.89-4.29-3.87-8.77-5.81-13.42l-5.73-14.48c-3.86-10-7.91-20.38-12.44-30.93a233.61,233.61,0,0,0-16.18-31.15l-4.93-7.46c-1.69-2.45-3.59-4.67-5.37-7l-2.72-3.5c-1-1.15-2.08-2.28-3.12-3.41l-6.17-6.69c-8.69-8.3-17.92-16.09-28.08-22.31A233.08,233.08,0,0,0,156.23,746c-10.56-4.52-21-8.59-30.93-12.44-5-1.92-9.82-3.84-14.48-5.73s-9.13-3.92-13.41-5.81c-4.22-2.07-8.34-3.86-12.11-5.91s-7.36-3.94-10.6-6l-9-5.75L58.43,699l-3.09-2.33-2.53-2.28-4-3.6Z"/><path class="cls-1" d="M45.53,646.45,49,650.22c2.17,2.52,5.78,5.93,10.18,10.13,4.78,4,10.44,9.13,17.53,13.82a122.3,122.3,0,0,0,11.51,7.28c4,2.6,8.68,4.66,13.33,7.12a335.6,335.6,0,0,0,31.58,12.87c11.43,4.15,23.73,8,36.32,12.79s25.62,10,38.05,17.24c3.14,1.74,6.1,3.82,9.18,5.72a94.1,94.1,0,0,1,8.89,6.3,96.82,96.82,0,0,1,8.53,6.88l8.28,7.53a181.79,181.79,0,0,1,26.13,34.58c7.26,12.42,12.46,25.5,17.26,38s8.64,24.89,12.78,36.31a336.32,336.32,0,0,0,12.87,31.59c2.46,4.64,4.52,9.3,7.12,13.33a124.62,124.62,0,0,0,7.3,11.53c4.75,7.16,9.81,12.71,13.77,17.49,4.26,4.46,7.66,8.05,10.16,10.21s3.76,3.47,3.76,3.47l-4.09-3.09a139.84,139.84,0,0,1-11.17-9.27c-4.37-4.46-10-9.66-15.34-16.65a167.13,167.13,0,0,1-16.34-24.52c-1.4-2.32-2.51-4.85-3.82-7.33s-2.64-5-3.77-7.71c-2.39-5.29-4.81-10.81-7.05-16.53-4.64-11.4-9.05-23.54-14-35.81a276.42,276.42,0,0,0-17.38-36.48,172.89,172.89,0,0,0-25.21-32.79l-7.47-6.85a85.09,85.09,0,0,0-8-6.54,85,85,0,0,0-8.35-6c-2.9-1.83-5.69-3.82-8.66-5.5A275.71,275.71,0,0,0,166.45,722c-12.28-4.9-24.42-9.32-35.83-14-5.72-2.24-11.23-4.65-16.52-7-2.67-1.13-5.18-2.55-7.71-3.78s-5-2.4-7.33-3.81A166.36,166.36,0,0,1,74.52,677c-7.07-5.38-12.14-10.93-16.61-15.29a139.88,139.88,0,0,1-9.3-11.2Z"/><path class="cls-1" d="M45.53,593.77s1,1.79,3,5.17c1,1.68,2.2,3.76,3.61,6.2,1.58,2.34,3.37,5,5.39,8,1,1.48,2,3.12,3.23,4.69l3.92,4.88L68.93,628c1.57,1.75,3.31,3.45,5,5.27l5.38,5.56c1.85,1.67,4.1,3.53,6.21,5.36,4.23,3.91,9,7.2,13.93,10.78a212.84,212.84,0,0,0,34.85,18.69c13,5.49,27.21,10.22,41.94,15.47s30.09,10.85,44.88,18.71a174.33,174.33,0,0,1,41.16,29.78l8.53,9.38c2.77,3.14,5.3,6.81,7.94,10.19a178,178,0,0,1,13.32,21.59c7.88,14.79,13.45,30.18,18.71,44.89s10,28.91,15.48,41.92A212,212,0,0,0,345,900.5a150.51,150.51,0,0,0,10.77,13.92c1.8,2.09,3.64,4.3,5.29,6.14l5.63,5.45c1.83,1.75,3.56,3.52,5.31,5.09l5.26,4.21,4.86,3.9c1.57,1.23,3.22,2.2,4.7,3.24l8,5.38,6.19,3.62,5.17,3s-1.88-.9-5.41-2.56l-6.51-3.08c-2.51-1.31-5.31-3-8.48-4.83-1.56-.94-3.28-1.82-5-3l-5.22-3.67c-1.82-1.28-3.71-2.62-5.68-4s-3.69-3.12-5.64-4.75l-6-5.08c-2.09-2-3.91-4-6-6.06-4.19-4-7.83-8.86-11.81-13.81a197.4,197.4,0,0,1-20.74-35.17c-6.06-13.14-11.41-27.37-16.85-41.93S291.57,797.24,284,783.12a170.75,170.75,0,0,0-12.72-20.35c-2.49-3.12-4.66-6.32-7.4-9.39l-8.29-9a164.68,164.68,0,0,0-38.76-28.41c-14.12-7.55-28.9-13.49-43.45-19s-28.78-10.79-41.93-16.85A198.09,198.09,0,0,1,96.3,659.38c-5-4-9.91-7.7-13.8-11.8-2-2-4-3.82-6-5.89l-5.15-6c-1.65-2-3.3-3.81-4.78-5.68s-2.69-3.85-4-5.65L59,619.12c-1.14-1.67-2-3.41-3-5-1.84-3.17-3.52-6-4.83-8.48l-3.07-6.49Z"/><path class="cls-1" d="M45.53,523.07l10.36,25.52A294.34,294.34,0,0,0,69.35,577c5.59,10.75,13.47,22,23.15,33.07l7.75,8.21,8.85,7.81a166,166,0,0,0,20,14.12c14.43,8.79,31,15.63,48.54,22s36.21,12.3,54.39,20.91,35.8,19.82,50.42,34.44l5.21,5.71c1.67,1.89,3.4,3.63,5,5.63,3.1,4.18,6.5,8.24,9.3,12.54A196.06,196.06,0,0,1,316.85,768c8.62,18.17,14.51,36.85,20.91,54.38s13.22,34.11,22,48.53a165.67,165.67,0,0,0,14.19,20l7.64,8.69c2.85,2.68,5.63,5.32,8.37,7.89a86.57,86.57,0,0,0,8.33,6.91,99.32,99.32,0,0,0,8.29,6.13l8.25,5.46c2.75,1.64,5.51,3.1,8.14,4.6a292.3,292.3,0,0,0,28.43,13.47l25.52,10.37-6.86-2.22c-4.47-1.44-11-3.53-19.32-6.43a294.16,294.16,0,0,1-29.38-12,163.1,163.1,0,0,1-35.06-22.21L377.64,904l-8.49-8.9a165.41,165.41,0,0,1-15.39-20.42C344.22,859.9,336.61,843,330,825.3s-13.05-35.89-21.36-53.37a188.28,188.28,0,0,0-14.35-25.24c-2.67-4-5.76-7.63-8.6-11.49-3.16-3.66-6.88-7.53-9.93-10.93-13.7-13.83-30.19-24.6-47.65-32.88S192.34,676.73,174.69,670s-34.6-14.28-49.36-23.82a162.06,162.06,0,0,1-20.48-15.45c-3-2.82-5.89-5.6-8.74-8.33l-7.71-8.81a162.65,162.65,0,0,1-22.16-35,294,294,0,0,1-12.06-29.37c-2.9-8.29-5-14.86-6.43-19.33Z"/><path class="cls-1" d="M45.53,456.61l4.08,7.27c2.58,4.78,6.24,11.92,10.21,21.28s8.39,20.91,13.55,34.05S84.64,547,93.13,561.94a159.26,159.26,0,0,0,34.79,42.43c3.65,3.53,7.69,6.09,11.62,9.12a62.63,62.63,0,0,0,6.23,4.18l6.47,4.05c2.22,1.27,4.53,2.42,6.81,3.65s4.53,2.53,6.95,3.57c4.78,2.2,9.54,4.51,14.55,6.45,19.82,8.25,41.46,14.56,62.78,23.69s42,21.46,59.31,38.58l5.85,6.43a71.75,71.75,0,0,1,5.73,6.71l5.5,7.23c1.86,2.39,3.27,5,4.93,7.44,6.52,9.94,11.62,20.58,16.27,31.19,9.14,21.31,15.44,43,23.69,62.77,1.94,5,4.25,9.78,6.45,14.55,1,2.43,2.38,4.66,3.57,6.95s2.38,4.59,3.66,6.82a165.26,165.26,0,0,0,17.38,24.35l4.83,5.42,1.2,1.34a16.71,16.71,0,0,0,1.2,1.21l2.64,2.51c1.76,1.64,3.47,3.41,5.24,4.9l5.28,4.39c1.7,1.51,3.57,2.83,5.4,4.16s3.61,2.68,5.45,3.93c3.78,2.33,7.34,4.89,11.14,6.89,14.92,8.48,29.62,14.58,42.74,19.76s24.7,9.51,34,13.55,16.49,7.64,21.28,10.22l7.27,4.08-7.5-3.62c-4.92-2.31-12.27-5.37-21.74-9s-21.17-7.39-34.57-12-28.55-10-44.15-18.31c-4-1.93-7.73-4.43-11.73-6.73-1.93-1.23-3.83-2.58-5.78-3.88s-3.92-2.62-5.79-4.17-3.82-3-5.75-4.52-3.58-3.2-5.41-4.82l-2.7-2.45c-.48-.46-.83-.7-1.42-1.35l-1.28-1.37-5.19-5.54a172.72,172.72,0,0,1-18.79-25,233.84,233.84,0,0,1-14.66-29.07c-8.68-20.26-15.51-41.72-24.39-62.38C328,750,323,739.85,316.82,730.49c-1.57-2.31-3-4.83-4.67-7l-5-6.57a66.09,66.09,0,0,0-5.57-6.48L295.65,704l-6.07-5.54a66.75,66.75,0,0,0-6.38-5.5l-6.69-5.13c-2.2-1.75-4.68-3.11-7-4.69C260.14,677,250,672,239.71,667.46c-20.66-8.9-42.12-15.72-62.38-24.4-5.1-2.06-10-4.53-14.9-6.87s-9.53-5.16-14.16-7.79L141.6,624a68.6,68.6,0,0,1-6.47-4.56c-4.09-3.31-8.51-6.36-12-9.87a159.26,159.26,0,0,1-34.78-45C80.1,549,74.65,533.8,70.08,520.42s-8.36-25.11-12-34.57-6.64-16.81-9-21.73Z"/><path class="cls-1" d="M45.53,407.6l5.9,7a96.34,96.34,0,0,1,6.66,8.74c1.22,1.78,2.71,3.6,4,5.73l4.1,6.77a279.16,279.16,0,0,1,17.37,36.3c5.88,14.36,11.66,30.88,19.21,48.18s17.43,35.35,32.06,51l5.52,5.86.59.63.77.69,1.56,1.38,3.12,2.79c2.11,1.79,4.15,3.88,6.36,5.47l6.62,4.9a68.79,68.79,0,0,0,7,4.67c2.41,1.48,4.76,3.08,7.24,4.51,5.07,2.66,10,5.6,15.43,7.93,21.14,10.08,44.82,16.76,68.26,26.31a232.69,232.69,0,0,1,34.49,17l8.21,5.26c2.67,1.87,5.22,3.92,7.83,5.87l3.9,3,3.63,3.29,7.4,6.76,6.41,7,3.21,3.53,3,4c2,2.64,4.07,5.25,5.95,7.93l5.26,8.22a233.07,233.07,0,0,1,17,34.48c9.57,23.44,16.24,47.12,26.33,68.26a166.83,166.83,0,0,0,38.86,54.22c15.58,14.57,33.72,24.39,50.94,32s33.82,13.32,48.19,19.21a279.52,279.52,0,0,1,36.29,17.38l6.77,4.1c2.13,1.28,3.95,2.76,5.73,4a94.13,94.13,0,0,1,8.74,6.66l7,5.9L585.1,949a95.92,95.92,0,0,0-9.05-6.13c-1.84-1.12-3.71-2.47-5.89-3.63l-6.88-3.78a276,276,0,0,0-36.65-15.7c-14.52-5.21-31.26-10.26-49-17.6s-36.7-16.91-53.5-31.83a167.62,167.62,0,0,1-41.73-55.72c-10.66-21.8-17.91-45.55-27.27-68.38a222.68,222.68,0,0,0-16.46-33.09l-5-7.76c-1.77-2.48-3.67-4.82-5.49-7.25l-2.76-3.61L322.17,691l-6.43-7-6.66-6.08-3.41-3.13-3.66-2.8c-2.47-1.86-4.85-3.81-7.36-5.58l-7.76-5a221.66,221.66,0,0,0-33.08-16.47c-22.83-9.37-46.58-16.61-68.39-27.27-5.52-2.47-10.7-5.61-15.94-8.45-2.56-1.54-5-3.23-7.5-4.84a74.21,74.21,0,0,1-7.25-5.13l-7-5.47c-2.34-1.79-4.2-3.82-6.3-5.7l-3.06-2.87-1.51-1.42-.76-.71c-.48-.48-.54-.59-.83-.9l-5.62-6.28c-14.87-16.74-24.5-35.77-31.8-53.46s-12.38-34.51-17.61-49a276.42,276.42,0,0,0-15.69-36.64l-3.78-6.88c-1.17-2.18-2.51-4.05-3.63-5.88A96.81,96.81,0,0,0,51,414.89Z"/><path class="cls-1" d="M45.53,368.17l1.94,1.57c1.26,1.05,3.23,2.5,5.61,4.61s5.42,4.7,8.52,8.1a116.21,116.21,0,0,1,10.57,11.86c7.67,9.21,15.49,21.56,22.67,36.59,3.64,7.49,7.08,15.66,10.53,24.3s6.76,17.83,10.43,27.29c1.89,4.7,3.69,9.56,5.83,14.34q1.58,3.62,3.17,7.29t3.53,7.25l1.78,3.67,2,3.58q2,3.58,4.06,7.24c1.48,2.35,3.07,4.66,4.6,7a69.19,69.19,0,0,0,4.93,6.93L151,546.6c1.82,2.24,3.92,4.26,5.88,6.43l3,3.2c.47.49,1.11,1.21,1.42,1.49l1.69,1.5,6.82,6.08a82.44,82.44,0,0,0,7.07,5.53c2.44,1.72,4.64,3.71,7.31,5.25L192,581c2.62,1.61,5.42,3,8.14,4.48,22,11.82,47.23,19.07,72.35,28.87a274,274,0,0,1,37.11,17.53c5.85,3.75,11.81,7.34,17.24,11.76a82.64,82.64,0,0,1,8.1,6.62l7.89,7.21a184.73,184.73,0,0,1,25.3,32.93,274.66,274.66,0,0,1,17.54,37.11c9.81,25.12,17,50.35,28.87,72.35,5.6,11.16,12.74,21.11,20.26,30.37l5.93,6.65,1.47,1.66c.26.32,1,1,1.51,1.45l3.28,3.07c2.2,2,4.32,4.19,6.55,6l6.7,5.24a69.92,69.92,0,0,0,6.9,4.9c2.36,1.54,4.68,3.12,7,4.6l7.23,4.06,3.58,2,3.67,1.78,7.25,3.53,7.29,3.16c4.78,2.14,9.64,3.95,14.34,5.84,9.45,3.67,18.63,7,27.29,10.42s16.8,6.89,24.3,10.53c15,7.18,27.39,15,36.58,22.66a119.58,119.58,0,0,1,11.87,10.6,112.74,112.74,0,0,1,8.09,8.51c2.11,2.38,3.56,4.36,4.62,5.62l1.57,1.94-1.67-1.86c-1.12-1.2-2.66-3.09-4.9-5.35a113,113,0,0,0-8.49-8,135.88,135.88,0,0,0-12.21-10c-9.37-7.19-21.84-14.42-36.93-20.93s-32.76-12.24-52-19.17c-4.79-1.79-9.72-3.48-14.66-5.56-2.47-1-5-2-7.49-3L486,877.14c-1.26-.59-2.53-1.16-3.81-1.75l-3.74-2-7.57-4c-2.47-1.48-4.92-3.06-7.41-4.61a71.15,71.15,0,0,1-7.38-5l-7.29-5.45c-2.4-1.86-4.48-3.92-6.76-5.89l-3.35-3c-.61-.57-1-.86-1.8-1.65l-1.59-1.69c-2.11-2.27-4.25-4.55-6.39-6.84a166.35,166.35,0,0,1-21.72-31.51c-12.53-22.84-20.4-48.35-30-72.94a264.93,264.93,0,0,0-17-35.71,175,175,0,0,0-24.27-31.28l-7.13-6.52a73.66,73.66,0,0,0-7.61-6.27c-5.09-4.2-10.74-7.61-16.25-11.19a265.44,265.44,0,0,0-35.7-17c-24.59-9.65-50.1-17.51-72.94-30-2.82-1.61-5.72-3.07-8.44-4.78l-8.08-5.26a95.23,95.23,0,0,1-7.75-5.75,92.74,92.74,0,0,1-7.32-6l-6.67-6.25-1.65-1.55c-.79-.75-1.11-1.2-1.69-1.81L151.52,558c-2-2.32-4.13-4.49-6-6.87s-3.59-4.83-5.38-7.22a73.71,73.71,0,0,1-5-7.34c-1.54-2.49-3.13-4.93-4.6-7.41l-4-7.57-2-3.74L122.86,514l-3.43-7.51c-1-2.52-2-5-3-7.5-2.07-4.93-3.76-9.86-5.56-14.65-6.93-19.22-12.56-36.93-19.17-52s-13.75-27.57-20.91-36.9a135.86,135.86,0,0,0-10-12.25,114.46,114.46,0,0,0-8-8.47c-2.26-2.23-4.15-3.78-5.36-4.9Z"/><path class="cls-1" d="M45.53,334.27l8.86,5.27c2.74,1.94,6.33,4.08,10.18,7.08,1.94,1.51,4,3.11,6.23,4.84l6.65,6c2.45,2.14,4.51,4.63,7,7.11l3.66,3.86c1.24,1.32,2.33,2.87,3.54,4.34A168.49,168.49,0,0,1,105.81,393a237.1,237.1,0,0,1,12.81,25c2,4.5,4,9.17,5.83,14s3.76,9.73,5.67,14.77c3.81,10.05,7.64,20.56,12.23,31.08,2.18,5.33,4.79,10.52,7.36,15.84,1.28,2.65,2.85,5.17,4.28,7.8a85.66,85.66,0,0,0,4.63,7.72l5,7.6L169.3,524c1,1.2,1.88,2.46,2.89,3.63l3.19,3.41c2.1,2.21,4.35,4.72,6.36,6.73a176.91,176.91,0,0,0,30.79,23.4,261,261,0,0,0,36.4,17c12.75,4.94,26.06,9.33,39.33,14.44s26.7,10.62,39.36,18c3.22,1.73,6.21,3.88,9.34,5.81,1.53,1,3.13,1.92,4.59,3l4.41,3.34a95.22,95.22,0,0,1,8.6,6.94l8.33,7.61a181,181,0,0,1,26.44,35c7.41,12.66,12.91,26.09,18,39.35s9.52,26.57,14.45,39.34a262.59,262.59,0,0,0,17,36.39,178,178,0,0,0,23.29,30.68l.4.44.31.29.88.83,1.76,1.65,3.52,3.28,3.49,3.27c1.19,1,2.41,1.9,3.61,2.86l7.17,5.59,7.61,5A80.83,80.83,0,0,0,498.6,846c2.62,1.43,5.14,3,7.8,4.28,5.31,2.57,10.51,5.19,15.83,7.36,10.52,4.6,21,8.42,31.08,12.23,5,1.91,10,3.74,14.77,5.68s9.49,3.79,14,5.82a235.16,235.16,0,0,1,25,12.82,170.31,170.31,0,0,1,35.53,28.38l6,6.61,4.84,6.25c3,3.86,5.14,7.44,7.09,10.18l5.27,8.87-5.7-8.58a170.74,170.74,0,0,0-18.8-22.07,168,168,0,0,0-36-26.59c-15.16-8.4-33.52-15.26-53.78-22.36-10.13-3.58-20.78-7.18-31.61-11.62-5.46-2.08-10.86-4.64-16.37-7.17-2.76-1.25-5.42-2.81-8.16-4.22a89.85,89.85,0,0,1-8.11-4.63c-2.67-1.66-5.35-3.35-8-5-2.59-1.93-5.2-3.86-7.82-5.82-1.29-1-2.66-2-3.9-3l-3.57-3.19-3.59-3.2-1.8-1.61-.9-.8-.58-.53-.42-.45a175.79,175.79,0,0,1-24.94-31.88,268.7,268.7,0,0,1-18.09-37.44c-5.22-13-9.73-26.23-14.77-39.29s-10.46-26-17.55-38a171.72,171.72,0,0,0-25.36-33.24l-7.54-6.89a91.43,91.43,0,0,0-8.09-6.58l-4.13-3.17c-1.37-1.06-2.9-1.92-4.35-2.88-2.95-1.83-5.76-3.89-8.83-5.55-12-7.09-25-12.47-38-17.54s-26.31-9.57-39.28-14.79a270.33,270.33,0,0,1-37.44-18.08,175.49,175.49,0,0,1-31.75-24.84c-2.53-2.59-4.5-5-6.75-7.43l-3.26-3.65c-1-1.26-2-2.59-2.94-3.87l-5.75-7.73-5-8a87.4,87.4,0,0,1-4.62-8.11c-1.42-2.74-3-5.39-4.23-8.16-2.53-5.51-5.09-10.91-7.17-16.37-4.44-10.83-8-21.47-11.63-31.61-7.1-20.25-13.95-38.62-22.36-53.78a165.93,165.93,0,0,0-13.15-20.29c-1.14-1.49-2.12-3-3.32-4.39l-3.52-4c-2.32-2.54-4.4-5.23-6.62-7.29a170.23,170.23,0,0,0-22-18.78Z"/><path class="cls-1" d="M45.53,303.85,48.06,305c1.66.75,4.16,1.78,7.31,3.36a165.89,165.89,0,0,1,26.39,15.52,162.34,162.34,0,0,1,16.89,14c2.89,2.9,5.61,5.88,8.59,9a51.52,51.52,0,0,1,4.27,5l4.26,5.39A57.51,57.51,0,0,1,119.9,363l4,6.05c2.66,4.14,5,8.63,7.61,13.13A317.45,317.45,0,0,1,144.79,412q6,15.81,12.55,32.88a279.29,279.29,0,0,0,15.44,33.86,158.32,158.32,0,0,0,22.36,31.72c2.24,2.35,4.62,5,6.74,7.13l7.68,6.93a86.21,86.21,0,0,0,7.93,6.33,85.16,85.16,0,0,0,8.31,5.86c22.92,15.46,50.73,24,78.58,34.34,14,5.15,28.05,11,41.42,18.5a177.25,177.25,0,0,1,37,27.62,177.11,177.11,0,0,1,27.62,37c7.56,13.36,13.36,27.46,18.51,41.42,10.37,27.84,18.88,55.65,34.34,78.57,7.66,11.41,16.21,21.9,26.3,30.69,1.25,1.13,2.47,2.35,3.73,3.42l3.83,3c2.6,1.93,5,4.08,7.72,5.83l8.08,5.32c2.7,1.74,5.56,3.18,8.31,4.76a277.16,277.16,0,0,0,33.86,15.45L588,855.19a318.89,318.89,0,0,1,29.8,13.24c4.51,2.59,9,4.94,13.14,7.61l6,4a58.93,58.93,0,0,1,5.74,4.12l5.35,4.24a51.27,51.27,0,0,1,5,4.28c3.13,3,6.18,5.77,9,8.64a162.79,162.79,0,0,1,14,16.86,166,166,0,0,1,15.52,26.39c1.58,3.16,2.61,5.67,3.36,7.33l1.12,2.52L694.9,952c-.83-1.63-2-4.08-3.69-7.15a179.92,179.92,0,0,0-16.54-25.52,160.49,160.49,0,0,0-14.41-16.17c-2.84-2.64-6-5.32-9.15-8.13a50.89,50.89,0,0,0-5.07-4c-1.76-1.29-3.56-2.61-5.38-4a57.92,57.92,0,0,0-5.75-3.82l-6.06-3.74c-4.13-2.46-8.62-4.61-13.1-7-9.25-4.27-19-8.57-29.65-12.33L553,848.33a285.35,285.35,0,0,1-35-15c-2.88-1.58-5.87-3-8.72-4.76l-8.55-5.36c-2.89-1.77-5.56-4-8.37-6.06L488.19,814c-1.34-1.09-2.54-2.24-3.83-3.36l-3.8-3.41-1.91-1.71-.95-.85-.61-.56-.46-.48-7.19-7.78a95.47,95.47,0,0,1-6.77-8.29,93,93,0,0,1-6.32-8.74c-8.19-11.92-14.65-25.16-20.28-38.71s-10.52-27.48-15.67-41.26-10.81-27.37-18.06-40.07a155.07,155.07,0,0,0-61.1-61.11c-12.7-7.24-26.28-12.92-40.07-18s-27.71-10-41.26-15.68-26.78-12.09-38.71-20.28a91.13,91.13,0,0,1-8.81-6.38,95.82,95.82,0,0,1-8.29-6.77c-2.54-2.36-5.07-4.69-7.59-7-2.66-2.77-4.76-5.27-7.15-7.89A165.23,165.23,0,0,1,166.71,482a285.13,285.13,0,0,1-15-34.94l-11.85-33.14c-3.76-10.6-8.07-20.4-12.33-29.66-2.38-4.48-4.53-9-7-13.1-1.26-2.05-2.51-4.06-3.74-6.05a54.79,54.79,0,0,0-3.81-5.73L109,354a52.46,52.46,0,0,0-4-5.08c-2.83-3.17-5.57-6.39-8.18-9.19a160.76,160.76,0,0,0-16.15-14.39,179.91,179.91,0,0,0-25.52-16.53c-3.07-1.73-5.53-2.87-7.15-3.7Z"/><path class="cls-1" d="M45.53,275.48l10.6,3.93a235.15,235.15,0,0,1,29.05,13.38,160.15,160.15,0,0,1,39.34,30.57C137.81,337.29,150.2,356,159.29,378c4.83,10.88,9,22.48,13.51,34.36s9.14,24.08,14.94,36.08c2.76,6.07,6.16,11.88,9.51,17.79l5.63,8.55c1.82,2.91,4.15,5.47,6.21,8.24l3.21,4.1,3.57,3.82,3.57,3.86,1.79,1.93.31.36.5.46,1,.9,8.09,7.32c2.74,2.34,5.61,4.29,8.42,6.47a197.18,197.18,0,0,0,38.28,21.21c13.73,5.9,28.21,10.75,42.8,16.12s29.36,11.22,43.42,18.94l5.28,2.87,5.1,3.24a108.56,108.56,0,0,1,10,6.81l4.82,3.67a48,48,0,0,1,4.69,3.85l9.12,8.33,7.94,8.71a48.75,48.75,0,0,1,3.84,4.67l3.73,4.89a106.13,106.13,0,0,1,6.85,10l3.24,5.1,2.87,5.27c7.72,14.07,13.58,28.84,18.94,43.43s10.24,29.06,16.13,42.79a196.22,196.22,0,0,0,21.24,38.32c8.25,11.77,18.45,21.71,29.27,30.49,2.75,2,5.24,4.32,8.16,6.14s5.71,3.77,8.55,5.63c5.91,3.35,11.71,6.75,17.79,9.52,12,5.79,24.17,10.49,36.08,14.93s23.47,8.69,34.35,13.51c22,9.14,40.6,21.43,54.61,34.78A160.2,160.2,0,0,1,707.2,914.8a233.65,233.65,0,0,1,13.38,29.06l3.93,10.6-4.4-10.41a264.2,264.2,0,0,0-14.5-28.32,157.37,157.37,0,0,0-31.34-37.66c-14.18-12.57-32.57-23.84-54.3-32.48-10.78-4.51-22.39-8.43-34.37-12.69s-24.47-8.71-36.93-14.41c-6.29-2.71-12.39-6.11-18.6-9.47l-9-5.68c-3.08-1.84-5.89-4.27-8.87-6.4a154.32,154.32,0,0,1-31-31.54,204.82,204.82,0,0,1-22.61-39.76c-6.25-14.08-11.28-28.7-16.62-43.13s-11.11-28.72-18.51-42.1l-2.76-5-3.08-4.82a104,104,0,0,0-6.44-9.37l-3.42-4.47A43,43,0,0,0,404,612.3l-8-8.69L387.79,596a43.81,43.81,0,0,0-4.4-3.64l-4.54-3.48a101.92,101.92,0,0,0-9.42-6.47l-4.82-3.09-5-2.76c-13.38-7.4-27.67-13.16-42.1-18.5s-29.05-10.39-43.13-16.64a203.89,203.89,0,0,1-39.8-22.63c-3-2.36-6.15-4.62-8.94-7.05l-8-7.41-1-.91-.5-.47c-.41-.41-.38-.41-.59-.64l-1.86-2.05-3.71-4.1-3.66-4.1L203,487.73c-2.11-3-4.49-5.7-6.33-8.78s-3.8-6.05-5.69-9c-3.36-6.21-6.75-12.31-9.47-18.6-5.69-12.46-10.21-24.92-14.41-36.93S158.92,390.8,154.4,380c-8.67-21.77-19.85-40.06-32.47-54.3a157.25,157.25,0,0,0-37.67-31.34,264.2,264.2,0,0,0-28.32-14.5Z"/><path class="cls-1" d="M45.53,248l11.16,3.77c7.24,2.58,18,6,31.12,11.94s28.83,14,44.23,27.19l5.77,5.09,1.47,1.3.37.33.24.22.17.18.67.72c.9.94,1.8,1.9,2.71,2.87L149,307.5c1.83,2,3.51,4.35,5.3,6.56,7.24,8.9,13.27,19.22,19,30.28s10.36,23.13,15.14,35.52,9.3,25.3,14.85,38.09,11.92,25.56,20.29,37.35c4.33,5.77,8.65,11.66,13.81,16.91l3.75,4.07.47.5.1.13.27.24,1.05,1,2.11,1.92c2.85,2.47,5.61,5.3,8.56,7.51s5.9,4.46,8.87,6.69l9.6,6.11a216,216,0,0,0,20.48,10.58c14.17,6.41,29.18,11.61,44.38,17.16s30.64,11.44,45.37,19.32A174.35,174.35,0,0,1,423,577l8.42,9.23c2.75,3.06,5.25,6.7,7.87,10l1.94,2.55,1.71,2.65,3.4,5.3c2.38,3.47,4.24,7.23,6.26,10.88,7.88,14.74,13.79,30.19,19.32,45.37s10.76,30.21,17.17,44.37S503,734.9,512.57,746.45c2.25,3,4.93,5.6,7.36,8.39,1.22,1.31,2.53,2.93,3.68,3.95l4.16,3.85c5.5,5.39,11.19,9.48,16.92,13.81,11.79,8.37,24.6,14.72,37.35,20.29s25.65,10.13,38.08,14.85,24.45,9.46,35.53,15.14a165.28,165.28,0,0,1,53.41,41.19c13.15,15.42,21.37,31.15,27.2,44.25s9.36,23.89,11.93,31.13S752,954.46,752,954.46l-4.26-11c-1.43-3.57-3.2-8-5.27-13.13-2.3-5.06-4.62-11-7.85-17.41-6.22-12.82-14.83-28-28.14-42.65a168.61,168.61,0,0,0-53.15-38.77c-10.91-5.34-22.87-9.71-35.28-14.21s-25.49-8.79-38.65-14.2-26.54-11.74-39.08-20.26c-6.17-4.4-12.66-9.06-18-14.23l-4.21-3.8c-1.68-1.51-2.74-2.88-4.15-4.34-2.59-2.91-5.44-5.65-7.85-8.76-10.19-12.09-18.22-26.12-25-40.66s-12.21-29.81-17.74-44.91S452,636.08,444.4,622c-1.94-3.48-3.73-7.06-6-10.34l-3.23-5-1.63-2.5-1.79-2.32c-2.46-3.08-4.56-6.26-7.3-9.28l-8.15-8.91A165.22,165.22,0,0,0,378,555.58c-14-7.57-29-13.39-44.12-18.94s-30.32-10.94-44.91-17.74-28.44-14.74-40.77-25.13c-3.16-2.44-5.72-5.15-8.6-7.7l-2.09-1.93-1.05-1-.26-.24a4.05,4.05,0,0,1-.38-.4l-.49-.54-3.9-4.31c-5.39-5.57-9.83-11.86-14.23-18-8.53-12.53-14.84-25.93-20.26-39.06s-9.76-26.23-14.2-38.66-8.88-24.37-14.21-35.29a177.92,177.92,0,0,0-17.75-29.79c-1.66-2.19-3.16-4.43-4.9-6.5s-3.58-4.07-5.34-6.05l-2.62-3-.65-.73-.16-.19-.12-.1-.35-.33-1.39-1.31-5.47-5.16C115.1,280.23,99.86,271.61,87,265.39c-6.38-3.23-12.34-5.55-17.41-7.84l-13.11-5.27Z"/><path class="cls-1" d="M45.53,220.42s4,1.5,11.55,4.11,18.72,6.2,32.75,11.39,31,12.1,48.45,23.93a151.87,151.87,0,0,1,25.56,21.64L169.9,288l5.71,7.32,2.9,3.74,2.6,3.95c1.71,2.68,3.57,5.31,5.21,8.1a270.86,270.86,0,0,1,17.47,36.34c5.21,12.88,9.86,26.37,15.26,39.89s11.5,27.1,19.41,39.93a153.51,153.51,0,0,0,29.4,35.1l4.46,4,4.63,3.49a102.3,102.3,0,0,0,9.56,6.76,181.24,181.24,0,0,0,20.87,11.74c14.54,7,30.11,12.56,45.9,18.28s31.93,11.67,47.34,19.71a174,174,0,0,1,42.46,30.58l8.77,9.61c2.82,3.29,5.44,7,8.17,10.49a191.48,191.48,0,0,1,13.65,22.36c8.05,15.41,14,31.55,19.71,47.34s11.26,31.36,18.29,45.89a168.3,168.3,0,0,0,26,39.55l3.91,4.32c.61.64,1.37,1.6,1.87,2l2.19,2c2.92,2.64,5.77,5.49,8.73,7.91l8.93,6.88c3.11,2.14,6.32,4.17,9.45,6.25,12.82,7.92,26.4,14,39.92,19.4s27,10.06,39.9,15.27a271.31,271.31,0,0,1,36.33,17.47c2.79,1.64,5.43,3.51,8.1,5.22l4,2.6,3.71,2.87L712,830q3.33,3.12,6.56,6.16c1.08,1,2.15,2,3.21,3s2,2.12,3,3.17c1.91,2.1,3.85,4.09,5.6,6.33a159.63,159.63,0,0,1,9.81,13c11.84,17.44,18.62,34.52,23.93,48.46s8.71,25.21,11.39,32.75,4.11,11.55,4.11,11.55-1.67-3.93-4.6-11.37-7.06-18.44-12.61-32.26c-5.72-13.71-13-30.42-25.11-47.11a154.57,154.57,0,0,0-9.92-12.35c-1.72-2.07-3.75-4-5.72-6.08a77.79,77.79,0,0,0-6.2-5.8l-6.52-5.8-7.16-5.36-3.63-2.71-3.9-2.45c-2.63-1.61-5.21-3.37-8-4.92a266.85,266.85,0,0,0-35.86-16.4c-12.79-4.89-26.36-9.28-40.17-14.49s-27.92-11.21-41.46-19.21c-3.33-2.11-6.7-4.17-10-6.37l-9.7-7.36c-3.14-2.51-5.9-5.25-8.89-7.87l-2.21-2c-1-.89-1.47-1.54-2.24-2.32l-4.16-4.51a177.45,177.45,0,0,1-27.76-41.25c-7.49-15-13.24-30.9-19-46.65s-11.62-31.43-19.37-46.14a180.12,180.12,0,0,0-13-21.13c-2.54-3.22-4.81-6.5-7.55-9.68l-8.49-9.27a164.5,164.5,0,0,0-40.08-29.05c-14.71-7.73-30.4-13.61-46.15-19.36s-31.61-11.48-46.65-19a190.25,190.25,0,0,1-21.71-12.49,108.81,108.81,0,0,1-10.17-7.36l-5-3.84-4.42-4.07a156.41,156.41,0,0,1-30.4-37.23c-8-13.54-14-27.66-19.21-41.46s-9.6-27.38-14.5-40.17a266.18,266.18,0,0,0-16.4-35.86c-1.55-2.75-3.3-5.33-4.92-7.95l-2.44-3.9-2.7-3.61-5.31-7.11-5.88-6.62a147.78,147.78,0,0,0-24.22-21.83c-16.68-12.1-33.4-19.37-47.11-25.09C75.33,232.08,64.34,228,56.9,225S45.53,220.42,45.53,220.42Z"/><path class="cls-1" d="M45.53,191.65l3,1.29c2,.84,4.87,2.2,8.75,3.68,7.68,3.18,19.2,7.16,33.87,12.22s32.67,11.08,51.94,21.4a166.69,166.69,0,0,1,28.86,19.44c2.34,2,4.61,4.13,6.94,6.26.6.57,1.11,1,1.8,1.7l1.6,1.72c1.07,1.16,2.15,2.31,3.24,3.48,4.48,4.45,8.44,9.92,12.64,15.28a217.2,217.2,0,0,1,20.57,36.64c6,13.23,10.9,27.31,16.3,41.52s11.16,28.63,18.73,42.39a117.06,117.06,0,0,0,6,10.17c2.24,3.24,4.12,6.78,6.68,9.84s4.74,6.44,7.44,9.4,5.37,5.84,8.08,8.77l9.27,8.43c3.14,2.69,6.42,4.93,9.63,7.45a179.3,179.3,0,0,0,21.21,12.94c14.87,7.77,31,13.72,47.38,19.6s33.25,11.83,49.36,20c4,2.18,8,4.24,11.9,6.54,3.81,2.48,7.72,4.82,11.44,7.43,3.61,2.77,7.32,5.45,10.85,8.33L463.31,537l8.95,9.84c2.89,3.52,5.65,7.32,8.46,11,2.63,3.76,4.95,7.65,7.43,11.46,2.3,3.91,4.36,7.94,6.54,11.89,8.2,16.12,14.13,33,20,49.36s11.83,32.51,19.6,47.39a165.11,165.11,0,0,0,28.69,40l9,8.28a51.45,51.45,0,0,0,4.66,3.78l4.69,3.6,2.33,1.8,2.48,1.63,5,3.22a116.79,116.79,0,0,0,10.16,6c13.76,7.58,28.18,13.37,42.39,18.74s28.29,10.34,41.52,16.3a217.89,217.89,0,0,1,36.64,20.57c5.32,4.18,10.7,8.05,15.28,12.65,2.33,2.26,4.78,4.24,6.94,6.67s4.2,4.52,6.19,6.85a166.93,166.93,0,0,1,19.47,28.92c10.32,19.27,16.25,37.32,21.4,51.94s9,26.2,12.22,33.87c1.48,3.89,2.84,6.77,3.67,8.75l1.3,3s-.48-1-1.42-2.94-2.39-4.78-4-8.6c-3.46-7.58-8-18.91-13.47-33.46s-12-32.24-22.74-50.84a163.9,163.9,0,0,0-19.76-27.55c-2-2.22-4.22-4.4-6.34-6.66s-4.51-4.15-6.78-6.27c-4.5-4.38-9.8-8-15-12a211.44,211.44,0,0,0-36-19.33c-13-5.6-27.08-10.24-41.47-15.41s-29.25-10.77-43.69-18.37c-3.59-1.94-7.27-3.76-10.72-6.08l-5.24-3.35-2.63-1.7L576.52,740c-3.3-2.6-6.94-5.06-10-7.83s-6.21-5.65-9.32-8.5a173,173,0,0,1-30.42-41.82c-8.19-15.46-14.37-31.93-20.37-48.33s-11.92-32.84-19.87-48.21c-2.11-3.76-4.1-7.61-6.31-11.32-2.37-3.58-4.62-7.3-7.09-10.78s-5.07-6.73-7.81-10.05l-9-9.81L447,534.77c-3.32-2.73-6.81-5.27-10.19-7.93-3.51-2.49-7.21-4.72-10.8-7.09-3.7-2.21-7.55-4.2-11.31-6.31-15.38-8-31.81-13.87-48.21-19.88s-32.88-12.17-48.33-20.36a187.41,187.41,0,0,1-22.21-13.74c-3.42-2.7-7.07-5.29-10.26-8.08l-9.23-8.47A168.27,168.27,0,0,1,247,402.34c-7.6-14.45-13.22-29.31-18.38-43.69s-9.81-28.42-15.4-41.47a212.85,212.85,0,0,0-19.33-36c-3.93-5.16-7.49-10.38-12-15l-3.17-3.53-1.57-1.76c-.37-.42-1.07-1-1.58-1.53-2.23-2.09-4.35-4.26-6.57-6.26a163.23,163.23,0,0,0-27.6-19.8c-18.6-10.71-36.4-17.16-50.85-22.73s-25.87-10-33.45-13.48c-3.83-1.64-6.66-3.12-8.6-4Z"/><path class="cls-1" d="M45.53,160.49l2.95,1.67c2,1.05,4.77,2.86,8.65,4.75,7.65,4,19.29,9.06,34.43,14.61s33.94,11.24,54.75,20.19a189.36,189.36,0,0,1,31.8,17.18l4,2.68,3.88,3c2.54,2.06,5.29,4,7.71,6.31s5,4.43,7.55,7l7,7.52a182.68,182.68,0,0,1,24.54,36.34c6.92,13.47,12.53,28,18.1,42.9s11.11,30.11,18.31,44.83,16,28.91,27.42,41.37l4.29,4.66,1.08,1.17,1.06,1,2.42,2.2c3.25,2.83,6.39,6.13,9.82,8.48A162.73,162.73,0,0,0,336.7,442.6c15.18,8.56,31.82,15,48.85,21.13s34.55,12.21,51.4,20.51a172.2,172.2,0,0,1,46.3,32.5l9.46,10.39c3,3.77,5.86,7.65,8.77,11.47,2.56,4,5.14,8,7.62,12,2.21,4.14,4.57,8.24,6.65,12.44,8.31,16.85,14.35,34.37,20.52,51.4s12.56,33.67,21.12,48.85a156.78,156.78,0,0,0,31.78,40.08c1.59,1.44,3.16,3,4.78,4.33l4.92,3.77,4.89,3.76,5.23,3.39L614.2,722c1.76,1.08,3.61,2,5.41,3l5.38,3c1.8,1,3.69,1.82,5.52,2.73,14.73,7.21,30,12.75,44.83,18.32s29.44,11.17,42.91,18.09a181.67,181.67,0,0,1,36.28,24.51l7.65,7.1c2.56,2.55,4.61,5,6.9,7.46s4.26,5.16,6.33,7.72c1,1.31,2.05,2.59,3,3.9l2.68,4a189.36,189.36,0,0,1,17.18,31.8c9,20.82,14.54,39.65,20.18,54.76s10.57,26.78,14.61,34.43c1.9,3.88,3.7,6.68,4.75,8.65s1.66,3,1.66,3l-1.78-2.89c-1.12-1.92-3-4.65-5.08-8.47a270.65,270.65,0,0,1-15.88-34c-6.08-15-12.25-33.67-21.67-54a185.13,185.13,0,0,0-17.72-30.67A154.19,154.19,0,0,0,751,795.69a176.57,176.57,0,0,0-35.52-23.08c-13.22-6.51-27.61-11.76-42.54-17.05s-30.47-10.63-45.82-17.8c-1.91-.91-3.86-1.73-5.75-2.72l-5.67-3c-1.87-1-3.8-2-5.65-3.12l-5.49-3.5-5.5-3.55-5.31-4-5.33-4.06c-1.68-1.4-3.22-2.88-4.84-4.33A165.29,165.29,0,0,1,550,667.48c-9.05-15.82-15.73-32.94-22-50s-12.35-34.24-20.41-50.36c-2-4-4.29-7.89-6.43-11.85L493.85,544l-8.07-10.48-9.22-10.05a162.52,162.52,0,0,0-43.68-31c-16.12-8.06-33.27-14.11-50.35-20.41s-34.2-13-50-22a170.06,170.06,0,0,1-22.61-15.31c-3.8-2.7-6.69-5.82-10-8.73l-2.4-2.21-1.33-1.24L295,421.27l-4.48-4.93a174.33,174.33,0,0,1-28.31-43.52c-7.18-15.34-12.51-30.9-17.81-45.82s-10.55-29.31-17.05-42.53a176.29,176.29,0,0,0-23-35.48c-17.76-20.94-39.24-34.72-59.49-44.09s-39-15.58-54-21.67a269.72,269.72,0,0,1-34-15.87c-3.81-2.05-6.53-4-8.47-5.09Z"/><path class="cls-1" d="M45.53,125.41s3.82,2.93,11,8.44a208.3,208.3,0,0,0,34,18.84c15.33,6.88,34.77,13.06,56.89,21.08a272.48,272.48,0,0,1,34.47,15c2.89,1.63,6,3.07,8.82,4.94l8.74,5.61c5.61,4.2,11.46,8.39,16.75,13.49l4.11,3.71c1.49,1.46,2.56,2.71,3.86,4.08,2.47,2.77,5.14,5.28,7.51,8.32s4.76,6.12,7.17,9.22Q242,243,245.31,248c8.3,13.48,15,28.43,21,43.93s11.52,31.55,18.39,47.27S299.8,370.3,310.89,384l2,2.61,2.24,2.43,4.48,4.88,2.25,2.45.28.3.18.16.63.58,1.27,1.15,5.07,4.61c3.34,3.27,6.95,5.65,10.45,8.39s7.41,5,11.17,7.52c15.43,9.54,32.6,16.6,50.32,23s36,12.61,53.62,21.09,34.44,19.46,48.46,33.52l9.85,10.85c3,4,6.19,8,9.05,12,2.59,4.19,5.46,8.24,7.82,12.56s4.86,8.55,6.81,13c8.48,17.62,14.62,35.91,21.09,53.61s13.45,34.9,23,50.33c2.5,3.77,4.69,7.74,7.55,11.21s5.26,7.28,8.41,10.45l4.49,4.95c.7.75,1.59,1.79,2.13,2.31l2.52,2.32,5,4.6,2.49,2.3,2.58,2a166.18,166.18,0,0,0,21.53,14.6,244.23,244.23,0,0,0,23.15,11.5c15.72,6.87,31.78,12.36,47.27,18.39s30.45,12.7,43.93,21a159.75,159.75,0,0,1,35.18,29.13c5,5.15,9.27,11.1,13.47,16.75q2.85,4.41,5.62,8.73c1.87,2.87,3.32,5.93,5,8.82a271,271,0,0,1,15,34.48c8,22.12,14.2,41.56,21.08,56.89a206.87,206.87,0,0,0,18.85,34l8.42,11-8.84-10.65a195.75,195.75,0,0,1-20.11-33.57c-7.35-15.24-14.11-34.65-22.69-56.39a266.86,266.86,0,0,0-15.71-33.56c-1.67-2.78-3.18-5.73-5-8.49l-5.6-8.39c-4.14-5.34-8.18-10.83-13.33-16a153.87,153.87,0,0,0-34.42-27.52c-13.16-7.81-27.8-14.07-43.22-19.75s-31.64-10.94-47.87-17.7-32.27-15.28-47-27L608,693.27,605.5,691l-5-4.58-2.53-2.29c-1.1-1-1.67-1.77-2.53-2.68l-4.76-5.18c-3.33-3.35-6-7.26-8.93-11s-5.37-7.8-8-11.76c-10.11-16.13-17.49-33.91-24-51.74s-12.78-35.78-21-52.67c-1.9-4.32-4.4-8.28-6.58-12.43s-5-7.9-7.48-11.86c-2.69-3.78-5.57-7.32-8.33-11l-9.58-10.49c-13.15-13.31-28.87-23.8-45.77-32s-34.85-14.42-52.68-21-35.61-13.93-51.74-24c-4-2.66-8.07-5-11.8-8.05s-7.79-5.75-11-8.93l-5.05-4.65-1.26-1.15-.63-.58-.45-.42-.3-.33-2.35-2.58-4.7-5.17-2.34-2.58-2.11-2.76c-11.57-14.47-20.23-30.63-26.91-46.86s-12-32.46-17.71-47.87-12-30.06-19.75-43.23l-6.09-9.6-6.63-8.84c-2.18-2.93-4.9-5.6-7.29-8.37-1.2-1.31-2.51-2.86-3.62-4l-3.91-3.65c-5-5-10.62-9.16-16-13.33l-8.39-5.6c-2.76-1.85-5.7-3.36-8.49-5A269.6,269.6,0,0,0,146.15,177c-21.75-8.57-41.16-15.34-56.4-22.69a196.15,196.15,0,0,1-33.58-20.1Z"/><path class="cls-1" d="M45.53,84.09s.83,1,2.42,2.8,3.91,4.64,7.27,8c3.15,3.51,7.71,7.14,12.8,11.73A180,180,0,0,0,87.16,120,209.72,209.72,0,0,0,113,133.28q14.64,6.15,32.09,12.12c11.56,4.11,24,8.19,36.83,13.57a207.75,207.75,0,0,1,38.57,20.79,159.73,159.73,0,0,1,34.52,33c10.32,13.19,18.59,28.28,25.52,44.37s12.68,33,19.32,49.79,14.21,33.49,24.8,48.62l8.44,11,9.34,10.14c3.56,3.2,7.1,6.53,10.71,9.65,3.74,2.76,7.31,5.7,11.21,8.34,15.69,10.69,33.48,18.5,51.92,25.39s37.65,13.09,56.18,21.8,36.12,19.85,51.13,34.87c3.39,3.75,6.81,7.37,10.14,11.26l4.79,6.27a76.84,76.84,0,0,1,4.58,6.37c2.71,4.39,5.76,8.61,8.06,13.21l3.68,6.78c1.2,2.27,2.21,4.62,3.31,6.93,8.72,18.53,14.9,37.75,21.81,56.17s14.7,36.23,25.38,51.92c2.66,3.92,5.67,7.57,8.46,11.35,3.08,3.55,6.3,7,9.42,10.44L633.58,667l10.87,8.32c15.11,10.61,31.87,18.12,48.61,24.79s33.72,12.35,49.8,19.33,31.23,15.23,44.31,25.48l4.9,3.8c1.6,1.3,3,2.76,4.55,4.13l4.47,4.15,2.3,2.15,2,2.2c2.62,2.94,5.26,5.78,7.8,8.72,2.37,3.16,4.73,6.3,7.07,9.39A208.64,208.64,0,0,1,841,818.07c5.38,12.81,9.46,25.27,13.57,36.84s8,22.32,12.12,32.08A209,209,0,0,0,880,912.82,180.39,180.39,0,0,0,893.43,932c4.57,5.07,8.19,9.62,11.72,12.78,3.33,3.38,6.1,5.69,8,7.28l2.8,2.42L913,952.14c-1.91-1.52-4.79-3.76-8.22-7-3.63-3-7.46-7.49-12.24-12.42A166.65,166.65,0,0,1,878.4,913.8a211.32,211.32,0,0,1-14.07-25.74c-4.4-9.73-8.76-20.43-13-31.94-8.74-22.89-18-49.28-35.38-73.51l-6.84-8.82c-2.55-2.86-5.25-5.69-7.91-8.58l-2-2.16-2.08-1.86-4.36-3.92c-1.48-1.29-2.88-2.69-4.44-3.91l-4.78-3.58c-12.76-9.65-27.48-17.46-43.32-24s-32.75-12-49.9-18.44-34.52-14.29-50.51-25.29c-3.92-2.91-7.87-5.92-11.76-8.94l-5.29-4.81L620,665.91l-1.33-1.21-.67-.6-.32-.3c-.39-.37-.29-.3-.46-.47-3.31-3.64-6.72-7.23-10-11-3-4-6.17-7.8-9-11.91-11.33-16.46-19.54-35-26.62-53.61s-13.32-37.6-21.82-55.39c-1.08-2.21-2.06-4.48-3.22-6.64l-3.55-6.46c-2.22-4.39-5.13-8.34-7.72-12.5A66.52,66.52,0,0,0,531.1,500l-4.39-5.74c-3.22-3.75-6.77-7.42-10.12-11.15l-5.26-4.81c-1.83-1.62-3.55-3.37-5.45-4.9l-5.82-4.47a65.76,65.76,0,0,0-5.92-4.31c-4.17-2.59-8.11-5.5-12.51-7.73l-6.45-3.54c-2.17-1.16-4.43-2.14-6.65-3.22-17.79-8.5-36.71-14.72-55.38-21.82S376,413,359.53,401.69c-4.12-2.83-8-6.08-12-9.1-3.67-3.22-7.13-6.51-10.69-9.74-3.62-3.84-6.7-7.33-10.06-11q-4.47-5.79-8.82-11.62c-11-16-18.88-33.37-25.28-50.51s-11.87-34.06-18.44-49.9-14.36-30.61-23.93-43.26a153.52,153.52,0,0,0-32.86-32.48c-24.26-17.41-50.63-26.65-73.52-35.38-11.52-4.28-22.22-8.65-31.95-13a210,210,0,0,1-25.74-14.07,164.76,164.76,0,0,1-18.93-14.17c-4.91-4.75-9.36-8.57-12.41-12.22-3.26-3.45-5.48-6.31-7-8.22Z"/><path class="cls-1" d="M53.1,45.54l2.08,3.21c1.39,2.11,3.35,5.31,6.33,9.18A151.61,151.61,0,0,0,73,71.75,184.79,184.79,0,0,0,90.76,88.21c14.1,11.35,33.68,22,57.4,30.74,11.83,4.5,24.7,8.66,38.13,13.61s27.47,10.69,41.25,18.61A165.54,165.54,0,0,1,266.18,182l4.32,4.66c1.39,1.64,2.71,3.43,4.07,5.16s2.72,3.49,4.08,5.25,2.46,3.66,3.72,5.5a128,128,0,0,1,7,11.41l3.29,5.91c1.09,2,2,4.06,3,6.1,8,16.35,14.12,33.89,20.72,51.43s13.77,35.17,24,51.3a156.4,156.4,0,0,0,39.2,42.33,180.94,180.94,0,0,0,25.15,15.46c4.53,2.11,9,4.34,13.65,6.3s9.29,3.93,14.08,5.68c19,7.31,38.89,13.48,58.11,22.37s37.66,20.42,52.91,35.62l5.42,5.93c1.73,2,3.56,3.72,5.21,5.91l5,6.5,2.47,3.25c.78,1.1,1.46,2.25,2.19,3.37A159.89,159.89,0,0,1,572,495.17c1.25,2.34,2.58,4.66,3.76,7l3.37,7.19c8.89,19.23,15.06,39.12,22.37,58.11,1.75,4.8,3.76,9.41,5.67,14.09s4.2,9.11,6.31,13.64A180,180,0,0,0,629,620.43l4.44,5.84c1.44,2,3.23,3.65,4.82,5.49l4.9,5.39.3.34.2.19.69.64,1.37,1.26,2.74,2.52,5.48,5,5.65,4.32c1.91,1.4,3.67,2.95,5.68,4.25l6,3.89c16.13,10.28,33.78,17.42,51.3,24s35.08,12.77,51.44,20.74,31.42,17.74,44,29.47l4.7,4.37c1.75,1.65,2.89,3.13,4.35,4.69s2.77,3.07,4.14,4.6c.68.77,1.38,1.5,2,2.3l1.9,2.51c2.46,3.37,5.13,6.58,7.32,10s4.35,6.81,6.4,10.2c7.92,13.77,13.66,27.83,18.61,41.24s9.11,26.3,13.61,38.13c8.76,23.74,19.36,43.28,30.75,57.43a183.86,183.86,0,0,0,16.45,17.79,148.34,148.34,0,0,0,13.82,11.43c3.86,3,7.06,5,9.17,6.34l3.21,2.08-3.28-2c-2.16-1.31-5.42-3.16-9.4-6a155.35,155.35,0,0,1-31.4-28.48c-11.88-14-23.16-33.61-32.61-57.31-4.83-11.82-9.33-24.59-14.58-37.79s-11-26.93-19-40.18l-6.35-9.78c-2.17-3.26-4.73-6.21-7.1-9.39L829,753.64c-.64-.77-1.37-1.51-2.06-2.26l-4.21-4.53c-1.39-1.44-2.87-3.22-4.21-4.4l-4.59-4.13a170.07,170.07,0,0,0-42.85-27.75c-16-7.5-33.38-13.3-51.15-19.67s-36-13.74-53-24.37l-6.33-4c-2.12-1.36-4.1-3-6.16-4.55l-6.12-4.67-5.5-5-2.75-2.51-1.39-1.26-.69-.62-.48-.46-.32-.36-5.2-5.66c-1.69-1.92-3.57-3.7-5.11-5.76l-4.72-6.14a189,189,0,0,1-16.39-26.35c-2.22-4.68-4.56-9.33-6.6-14.09s-4.1-9.54-5.88-14.39c-7.53-19.28-13.77-39-22.45-57.45l-3.28-6.91c-1.13-2.27-2.42-4.46-3.63-6.7a149.35,149.35,0,0,0-7.9-13c-.69-1.05-1.35-2.15-2.08-3.17l-2.28-3-4.54-5.92c-3.17-3.84-7.13-7.85-10.28-11.41-14.3-14.37-31.57-25.44-50.06-34s-38.17-14.92-57.45-22.45c-4.84-1.79-9.61-3.89-14.39-5.88s-9.41-4.38-14.08-6.6a188,188,0,0,1-26.41-16.43,164.69,164.69,0,0,1-41-44.73c-10.63-17-18.06-35.2-24.34-53S296.94,245,289.45,229c-.95-2-1.8-4-2.82-6s-2.06-3.85-3.09-5.76A122.49,122.49,0,0,0,277,206.12c-1.17-1.77-2.2-3.68-3.48-5.33s-2.51-3.35-3.76-5-2.44-3.34-3.77-5l-4.25-4.73a159.49,159.49,0,0,0-36.85-30.35c-13.25-7.94-27-13.7-40.18-19s-26-9.74-37.78-14.57c-23.72-9.46-43.28-20.7-57.34-32.63A167.57,167.57,0,0,1,72.12,72.5a149.86,149.86,0,0,1-11-14.28c-2.86-4-4.71-7.24-6-9.4Z"/><path class="cls-1" d="M87,45.54l2.44,2.77,3,3.39,4.36,4.45c1.58,1.73,3.6,3.39,5.77,5.33s4.5,4.05,7.13,6.21l8.81,6.49c3.11,2.31,6.77,4.33,10.43,6.7s7.89,4.29,12.12,6.62c4.31,2.16,9,4.18,13.76,6.33q14.64,6,32,12c11.54,4.07,23.93,8.23,36.7,13.59a202.33,202.33,0,0,1,38.27,21.07c3,2.33,6.21,4.57,9.24,7l8.8,7.93,1.12,1c.53.53.73.77,1.11,1.16l2,2.18,4.06,4.36a109.41,109.41,0,0,1,7.82,9.49C306.13,186.85,314.28,202,321.13,218s12.59,32.91,19.22,49.63S354.58,301,365.25,316c2.83,3.61,5.54,7.34,8.48,10.91,3.11,3.32,6.32,7,9.37,10.07,3.55,3.16,7.06,6.56,10.69,9.56,3.74,2.73,7.25,5.71,11.2,8.29,15.68,10.6,33.42,18.36,51.81,25.21s37.53,13.06,56,21.76,36.14,20,50.81,34.62l5.22,5.72c1.68,1.9,3.41,3.64,5,5.66l4.77,6.25a78,78,0,0,1,4.57,6.34c2.7,4.39,5.75,8.58,8,13.17l3.67,6.76c1.21,2.26,2.2,4.61,3.31,6.9,8.7,18.46,14.89,37.62,21.76,56S634.6,579.33,645.2,595c2.58,4,5.63,7.55,8.4,11.33,3,3.62,6.25,7,9.34,10.45l.58.64.19.18.32.31,1.32,1.21,2.64,2.42,5.25,4.83c3.57,2.94,7.21,5.57,10.79,8.38,15,10.67,31.68,18.2,48.35,24.88S766,672,782,678.85s31.19,15,44.32,25.13c6.72,4.91,12.49,10.5,18.31,16.22l7.78,8.67c2.48,3,4.76,6.23,7.1,9.29a202.7,202.7,0,0,1,21.09,38.29c5.36,12.77,9.52,25.16,13.59,36.7s7.95,22.29,12,32c2.16,4.81,4.18,9.45,6.34,13.77,2.33,4.22,4.25,8.44,6.62,12.11s4.38,7.31,6.7,10.44l6.5,8.82c2.16,2.62,4.3,4.93,6.2,7.12a78.38,78.38,0,0,0,5.33,5.77l4.44,4.36,3.4,3,2.76,2.43-2.85-2.34-3.51-2.87c-1.33-1.2-2.86-2.61-4.6-4.2s-3.56-3.51-5.56-5.6-4.22-4.37-6.49-6.94-4.41-5.57-6.85-8.65-4.54-6.72-7-10.36-4.54-7.85-7-12.07c-2.3-4.3-4.47-8.93-6.77-13.73-4.32-9.72-8.62-20.4-12.89-31.88S882,790.7,876.43,778.28a204.79,204.79,0,0,0-21.19-36.94c-2.28-2.89-4.44-5.87-6.89-8.76l-7.92-8.53c-5.44-5.15-11.26-10.64-17.76-15.2-12.81-9.5-27.53-17.18-43.34-23.63s-32.68-11.89-49.77-18.35-34.4-14.31-50.26-25.41c-3.87-3-7.9-5.9-11.65-9l-5.28-4.8-2.65-2.41-1.32-1.2-.33-.3-.47-.45-.62-.68c-3.28-3.64-6.74-7.17-9.91-11-3-4-6.18-7.75-8.91-11.9-11.26-16.44-19.4-34.89-26.44-53.48S598.44,508.84,590,491.12c-1.08-2.2-2-4.47-3.22-6.62l-3.53-6.44c-2.21-4.38-5.13-8.3-7.7-12.45a69.91,69.91,0,0,0-4.26-5.84l-4.38-5.71c-3.15-3.68-6.9-7.56-9.94-11-13.76-13.88-30.3-24.67-48-33s-36.58-14.7-55.2-21.77-37-15.18-53.48-26.43c-4.16-2.73-8-6-12-9-3.77-3.15-7.14-6.47-10.72-9.69-3.67-3.71-6.7-7.27-10-10.9-3.08-3.76-5.92-7.7-8.87-11.52-11.1-15.86-19-33.2-25.39-50.27s-11.85-34-18.36-49.77-14.16-30.58-23.6-43.3a150.65,150.65,0,0,0-32.5-32.6,205.17,205.17,0,0,0-37-21.2c-12.43-5.61-24.65-10.08-36.09-14.46s-22.16-8.57-31.88-12.88c-4.8-2.31-9.43-4.47-13.73-6.77-4.22-2.47-8.41-4.52-12.06-7s-7.27-4.61-10.37-7l-8.67-6.87c-2.56-2.27-4.8-4.5-6.92-6.47s-4.07-3.76-5.6-5.56L92.2,51.89l-2.86-3.5Z"/><path class="cls-1" d="M126.4,45.54s3.78,3,11,8.38a208.48,208.48,0,0,0,34.06,18.69c15.33,6.84,34.76,13,56.84,21a267.63,267.63,0,0,1,34.4,15.06c2.89,1.65,6,3,8.8,5l8.72,5.61,8.47,6.43,2.15,1.63,2,1.81,4.06,3.67,4.1,3.7,3.83,4.11,3.77,4.06a42.93,42.93,0,0,1,3.7,4.28l7.15,9.22,6.44,9.83c8.25,13.49,14.89,28.43,20.88,43.92s11.51,31.51,18.38,47.21,15.13,31.05,26.23,44.68a47.38,47.38,0,0,0,4.27,5l4.48,4.88,2.25,2.44,2.37,2.18,5.07,4.61c3.33,3.27,6.95,5.6,10.44,8.36s7.42,5,11.17,7.49c15.41,9.53,32.58,16.55,50.28,22.94s36,12.6,53.56,21.08,34.39,19.44,48.4,33.49l9.84,10.83c3,4,6.17,8,9,12,2.59,4.19,5.45,8.23,7.81,12.53s4.87,8.55,6.8,13c8.49,17.6,14.62,35.87,21.08,53.56s13.42,34.87,22.94,50.28c2.51,3.75,4.67,7.75,7.53,11.21s5.24,7.28,8.38,10.46l4.48,4.93,2.12,2.33,2.51,2.31,5,4.6,2.49,2.29c.84.73,1.71,1.34,2.57,2l5.14,3.94a50.42,50.42,0,0,0,5.28,3.78l5.48,3.54a55.16,55.16,0,0,0,5.57,3.35,247.39,247.39,0,0,0,23.11,11.52c15.69,6.87,31.73,12.35,47.21,18.37s30.43,12.64,43.92,20.9a160.92,160.92,0,0,1,35.21,29l3.6,4,1.79,2,1.65,2.17,6.48,8.53q2.84,4.41,5.62,8.72c1.91,2.83,3.33,5.9,5,8.8a268.23,268.23,0,0,1,15.06,34.4c8,22.09,14.18,41.52,21,56.84a207.8,207.8,0,0,0,18.7,34.07c5.38,7.2,8.37,11,8.37,11s-3.11-3.65-8.79-10.68a196.3,196.3,0,0,1-20-33.61c-7.31-15.22-14-34.62-22.63-56.33a261.86,261.86,0,0,0-15.77-33.47c-1.68-2.78-3.15-5.74-5-8.47s-3.71-5.55-5.6-8.38l-6.31-8-1.59-2-1.83-2c-1.21-1.31-2.44-2.61-3.67-3.93a155.23,155.23,0,0,0-34.43-27.39c-13.18-7.76-27.81-14-43.22-19.65S754,648.73,737.79,642s-32.22-15.3-46.88-27.05c-.92-.72-1.9-1.41-2.76-2.15l-2.51-2.28-5-4.57-2.53-2.3c-1.07-1.08-1.66-1.78-2.51-2.69l-4.76-5.18c-3.32-3.34-6-7.27-8.9-11s-5.33-7.81-8-11.75c-10.07-16.12-17.42-33.89-24-51.7s-12.77-35.74-21-52.61c-1.9-4.31-4.4-8.26-6.58-12.41s-5-7.88-7.47-11.85c-2.69-3.75-5.56-7.3-8.32-11L577,423c-13.13-13.29-28.84-23.78-45.71-31.95s-34.81-14.41-52.62-21-35.57-13.89-51.69-24c-4-2.66-8.07-4.93-11.8-8s-7.8-5.74-11-8.92l-5.05-4.63L396.5,322l-2.36-2.59-4.68-5.16A50.24,50.24,0,0,1,385,309c-11.58-14.45-20.26-30.57-26.95-46.78s-12-32.42-17.7-47.82-11.89-30-19.65-43.22l-6.06-9.6q-3.33-4.47-6.62-8.85a39.86,39.86,0,0,0-3.53-4.24l-3.71-4.13-3.59-4-3.9-3.64-3.86-3.61-1.93-1.79-2-1.61-8.1-6.37-8.39-5.6c-2.72-1.9-5.68-3.37-8.45-5A264,264,0,0,0,227,96.91c-21.7-8.59-41.1-15.32-56.32-22.63a196.7,196.7,0,0,1-33.63-20C130.07,48.65,126.4,45.54,126.4,45.54Z"/><path class="cls-1" d="M175.43,45.54l3,1.48c2,.92,4.83,2.54,8.74,4.19,7.67,3.63,19.32,8,34.26,13.29s33.4,11,53.52,20.53a186.26,186.26,0,0,1,30.47,18.24c2.46,2,5,3.88,7.48,5.93l7.23,6.61c2.53,2.43,4.54,4.8,6.87,7.24,1.14,1.22,2.28,2.44,3.42,3.68s2.14,2.7,3.22,4c17.86,21.56,29.14,49.71,39.82,78.86,5.45,14.56,11,29.45,18.39,43.74s16.46,27.94,28,39.84l2.09,2.29.53.57.14.15.3.27,1.18,1.08,4.74,4.31c1.6,1.4,3.15,2.95,4.79,4.24l4.95,3.74,5,3.76,5.35,3.41,5.36,3.42,5.63,3.05c15,8.19,31.42,14.39,48.16,20.41s33.92,12,50.44,20.26a173.62,173.62,0,0,1,45.35,32.05l9.29,10.21c2.93,3.64,5.76,7.49,8.62,11.23,2.6,3.87,5,7.82,7.55,11.73l6.6,12.19c8.22,16.51,14.22,33.7,20.27,50.43s12.21,33.12,20.39,48.16a160.65,160.65,0,0,0,30.25,40l4.67,4.3a45.78,45.78,0,0,0,4.73,4c3.27,2.42,6.31,5,9.69,7.27s6.79,4.47,10.25,6.55l10.56,5.87c14.28,7.37,29.17,12.94,43.74,18.39s28.89,10.78,42.26,17.21,25.87,13.73,36.53,22.56c1.35,1.07,2.74,2.08,4,3.2l3.74,3.47c2.46,2.36,4.94,4.46,7.32,7l6.5,7.12c2.06,2.49,4,5,6,7.52A186,186,0,0,1,915,725.08c9.54,20.13,15.2,38.61,20.52,53.52s9.65,26.59,13.28,34.26c1.66,3.91,3.27,6.75,4.19,8.74l1.48,3-1.59-2.91c-1-1.95-2.73-4.73-4.54-8.58a347.51,347.51,0,0,1-14.55-33.84c-5.76-14.77-12-33.07-21.95-52.59a182,182,0,0,0-18.69-29.25l-5.89-7.07c-2.18-2.3-4.39-4.64-6.63-7-2.15-2.18-4.74-4.31-7.11-6.5l-3.68-3.3c-1.26-1.06-2.64-2-4-3-10.44-8.34-22.67-15.21-35.81-21.23s-27.35-11.06-42-16.23-29.93-10.57-44.88-17.94L732,609.2c-3.62-2.15-7.16-4.52-10.77-6.8s-6.95-5.17-10.45-7.77a49.1,49.1,0,0,1-4.92-4.14l-4.7-4.28a168.51,168.51,0,0,1-32.18-42c-8.64-15.65-15.08-32.46-21.23-49.22s-12.15-33.56-20.14-49.34l-6.37-11.6c-2.4-3.67-4.75-7.42-7.2-11.05-2.67-3.41-5.22-6.86-8-10.28l-9-9.85a164.11,164.11,0,0,0-42.78-30.58c-15.78-8-32.59-14-49.35-20.14S471.39,339.62,455.74,331l-5.85-3.23-5.62-3.62-5.59-3.62-5.35-4.1-5.32-4.1c-1.72-1.38-3.2-2.88-4.81-4.32l-4.71-4.34-1.18-1.07-.29-.28-.42-.41-.55-.61-2.21-2.42a167.59,167.59,0,0,1-28.92-42c-7.38-14.94-12.76-30.19-18-44.87s-10.19-28.88-16.23-42-12.94-25.43-21.19-35.75c-16.3-21.52-36.76-36-56.18-46s-37.83-16.19-52.59-22a347.9,347.9,0,0,1-33.85-14.55c-3.86-1.81-6.62-3.54-8.58-4.54Z"/><path class="cls-1" d="M241.88,45.54l11.26,3.81c7.31,2.56,18.17,6,31.52,11.72s29.4,13.51,45.28,26.37c3.81,3.43,7.83,6.69,11.81,10.57l5.59,5.93c.94,1,1.9,2,2.85,3s1.79,2.22,2.7,3.33c1.78,2.28,3.59,4.57,5.43,6.9s3.29,4.92,5,7.41c3.48,4.94,6.23,10.44,9.35,15.9a371.87,371.87,0,0,1,15.57,35.76c4.76,12.54,9.41,25.53,14.88,38.51s11.77,25.94,20.12,37.91a102.41,102.41,0,0,0,6.53,8.82l3.38,4.37,3.75,4.09,3.79,4.09,1.89,2.06,2,1.81,8.59,7.75a181.87,181.87,0,0,0,39.11,23.84c14.25,6.56,29.39,11.82,44.71,17.41s30.93,11.49,45.81,19.41a173.66,173.66,0,0,1,41.06,29.82l8.5,9.31c2.77,3.11,5.3,6.77,7.94,10.13a178.42,178.42,0,0,1,13.39,21.61c7.91,14.88,13.83,30.49,19.4,45.81s10.87,30.46,17.42,44.71a181,181,0,0,0,24,39.25,167.45,167.45,0,0,0,32.87,29.79c12,8.34,24.94,14.67,37.91,20.12s26,10.12,38.51,14.87a372.79,372.79,0,0,1,35.75,15.58c5.45,3.12,11,5.87,15.9,9.35,2.5,1.69,5.07,3.2,7.4,5l6.86,5.38c1.11.9,2.27,1.74,3.32,2.68l3.07,2.89,6,5.67c3.88,4,7.06,7.92,10.47,11.7,13,16,20.73,32,26.41,45.34s9.16,24.21,11.72,31.53,3.81,11.26,3.81,11.26L950.16,747c-2.84-7.21-6.89-17.85-12.92-30.95s-14.36-28.71-27.34-43.72c-13-15.3-30.94-29.24-52.82-40.27a364.82,364.82,0,0,0-35.46-14.61c-12.55-4.49-25.69-8.89-39-14.2S755.72,591.7,743,583.21a168.34,168.34,0,0,1-35-30.9,189.92,189.92,0,0,1-25.54-40.86c-7-14.68-12.44-30.06-18-45.3s-11.42-30.38-19-44.58a169.61,169.61,0,0,0-12.71-20.38c-2.49-3.11-4.62-6.3-7.36-9.36l-8.23-9a164.58,164.58,0,0,0-38.74-28.31c-14.19-7.61-29.34-13.44-44.57-19s-30.61-11.07-45.29-18a189.22,189.22,0,0,1-41-25.66c-2.85-2.63-5.7-5.24-8.52-7.85l-2.25-2.08-2-2.19-3.94-4.35L427,271l-3.5-4.63A110.47,110.47,0,0,1,416.8,257c-8.5-12.71-14.77-26.29-20.06-39.6s-9.72-26.47-14.2-39a368.4,368.4,0,0,0-14.62-35.46c-2.94-5.35-5.52-10.8-8.79-15.64-1.6-2.45-3-5-4.7-7.28l-5-6.75c-.84-1.11-1.6-2.24-2.48-3.3s-1.84-2.09-2.76-3.12l-5.4-6.1c-3.56-3.69-7.52-7.14-11.09-10.58C312.59,77.06,297,68.79,283.92,62.75s-23.75-10.09-31-12.92Z"/><path class="cls-1" d="M312.59,45.54l9.55,4.74a175.52,175.52,0,0,1,25.5,16.2c2.62,1.94,5.08,4.36,7.84,6.69l4.17,3.66c1.48,1.34,2.66,2.75,4,4.16A159.09,159.09,0,0,1,380,100.6a193.9,193.9,0,0,1,14.78,25c1.12,2.3,2.27,4.63,3.42,7s2.08,4.84,3.15,7.31c2.19,4.9,4.06,10,6.15,15.22,8.09,20.77,15.52,43.78,28,65.54l2.3,4.1,2.6,4c1.78,2.61,3.4,5.36,5.33,7.91l5.94,7.59,1.5,1.91,1.66,1.78,3.34,3.57,3.35,3.59.84.89.79.74,1.88,1.69q3.78,3.39,7.58,6.83c5.3,4,10.32,8.16,16.23,11.64,22.83,14.91,50.27,23.22,77.75,33.5,13.76,5.12,27.67,10.83,40.82,18.36a160.3,160.3,0,0,1,63.79,63.79c7.54,13.15,13.25,27.06,18.37,40.82s9.8,27.45,15,40.61a211.27,211.27,0,0,0,18.5,37.14c3.45,5.86,7.75,11,11.75,16.35l6.66,7.38,1.65,1.84.71.78.93.87,3.67,3.43,3.67,3.42,1.81,1.7,1.89,1.48,7.5,5.86c2.52,1.91,5.29,3.55,7.9,5.32l4,2.6,4.11,2.3c21.75,12.5,44.76,20,65.53,28,5.19,2.09,10.32,4,15.23,6.16l7.3,3.15,7,3.41a193.92,193.92,0,0,1,25,14.79,167.14,167.14,0,0,1,34.09,32.36,173.58,173.58,0,0,1,16.22,25.52l4.75,9.56-5.2-9.31a190.67,190.67,0,0,0-17.15-24.55,164.36,164.36,0,0,0-34.68-30.66c-15-9.85-33.6-17.92-54.43-25.43s-44.18-14.54-67-27l-4.32-2.29-4.17-2.61c-2.77-1.8-5.65-3.42-8.39-5.4L750.91,554l-2.06-1.56L747,550.82l-3.74-3.33-3.75-3.36-.94-.84a13.83,13.83,0,0,1-1-1l-1.77-1.9-7.1-7.68c-4.28-5.53-8.87-11-12.55-17.06-15.86-23.87-24.88-52-35-79-5.11-13.57-10.69-27-17.91-39.46a155.07,155.07,0,0,0-60.29-60.29c-12.48-7.22-25.88-12.8-39.45-17.91-27-10.18-55.17-19.19-79-35.05-6.05-3.66-11.64-8.35-17.19-12.67l-7.48-6.92-1.85-1.73c-.36-.35-.5-.43-1-1l-.86-1-3.44-3.85-3.42-3.82-1.7-1.91-1.53-2-6-8.09c-2-2.71-3.6-5.61-5.39-8.37l-2.61-4.18-2.3-4.31c-12.45-22.85-19.4-46.23-27-67S387,117.54,377.12,102.57a155.25,155.25,0,0,0-15.35-19.82c-1.29-1.43-2.54-3-3.81-4.22l-4-3.74c-2.62-2.4-5-4.87-7.5-6.89A191.87,191.87,0,0,0,321.9,50.73Z"/><path class="cls-1" d="M365.26,45.54l7.68,6.1a161.12,161.12,0,0,1,19.42,19.8c1.88,2.36,3.84,4.85,5.91,7.46q2.78,4.13,5.8,8.65l1.53,2.28L407,92.26q1.41,2.44,2.85,5c2,3.35,3.77,7,5.63,10.76,7.44,15,14,32.74,21.17,51.8,3.76,9.46,7.59,19.36,12.5,29.07,2.25,5,5.11,9.69,7.82,14.59,1.35,2.46,3,4.71,4.56,7.1a81.55,81.55,0,0,0,4.87,7l5.34,6.81,1.34,1.72,1.5,1.59,3,3.21,3,3.23,1.51,1.61.38.41.3.27.85.76,6.84,6.11a72.57,72.57,0,0,0,7.09,5.63c2.45,1.74,4.69,3.7,7.29,5.33l7.81,4.94c2.57,1.72,5.43,3,8.15,4.55,22,12,47.41,19.25,72.65,29.09a277.58,277.58,0,0,1,37.3,17.56c5.87,3.77,11.87,7.36,17.32,11.8a85.19,85.19,0,0,1,8.14,6.65l7.94,7.25a185.65,185.65,0,0,1,25.4,33.1,276.36,276.36,0,0,1,17.56,37.3c9.86,25.24,17.1,50.6,29.09,72.64a160.47,160.47,0,0,0,46.2,54.43c2.15,1.83,4.67,3.25,7,4.86s4.65,3.21,7.11,4.55c4.89,2.71,9.61,5.57,14.58,7.83,9.72,4.91,19.61,8.74,29.06,12.49s18.75,7,27.44,10.48c4.34,1.76,8.58,3.42,12.63,5.27s8,3.49,11.74,5.42,7.41,3.6,10.77,5.63l5,2.86,2.42,1.39,2.29,1.53,8.65,5.79,7.42,5.9A160.7,160.7,0,0,1,948.34,627l6.11,7.68L948,627.39A179.14,179.14,0,0,0,927.38,609l-7.55-5.52-8.75-5.39-2.3-1.41-2.45-1.27-5-2.63c-3.38-1.86-7-3.44-10.82-5.12-15.08-6.74-32.85-12.48-52.17-19.38-9.63-3.56-19.73-7.19-29.83-12-5.14-2.18-10.1-5-15.22-7.7-2.57-1.33-5-3-7.49-4.55a87,87,0,0,1-7.45-4.92L771,533.69l-1.85-1.39-1.67-1.49-3.35-3-3.37-3-1.7-1.51-.42-.38a5.83,5.83,0,0,1-.53-.54l-.8-.85-6.42-6.86a78,78,0,0,1-6.1-7.29c-1.89-2.55-4-5-5.76-7.67s-3.51-5.4-5.29-8.12-3.21-5.63-4.85-8.46a279.71,279.71,0,0,1-16.26-36c-4.81-12.34-9.15-24.95-14-37.3A268.82,268.82,0,0,0,681.55,374a176.77,176.77,0,0,0-24.38-31.45L650,336a76.76,76.76,0,0,0-7.65-6.29c-5.11-4.22-10.8-7.63-16.34-11.24a268.69,268.69,0,0,0-35.9-17.06c-12.35-4.86-25-9.21-37.3-14a281.66,281.66,0,0,1-36-16.25c-2.82-1.65-5.77-3-8.46-4.86L500.29,261c-2.7-1.75-5.19-3.9-7.76-5.84a78.79,78.79,0,0,1-7.27-6.09l-6.7-6.27-.83-.78-.53-.51-.39-.43-1.55-1.74-3.09-3.45-3.06-3.43-1.52-1.71-1.37-1.83-5.4-7.24a88.13,88.13,0,0,1-4.9-7.43c-1.52-2.52-3.22-4.92-4.55-7.49-2.68-5.13-5.52-10.08-7.71-15.22-4.8-10.1-8.43-20.2-12-29.83-6.9-19.32-12.64-37.09-19.38-52.17-1.69-3.76-3.26-7.44-5.12-10.81-.89-1.71-1.77-3.39-2.62-5-.44-.82-.86-1.64-1.28-2.45l-1.42-2.3-5.38-8.75q-2.89-3.95-5.51-7.53l-2.56-3.48-2.71-3.09-4.89-5.64a60.44,60.44,0,0,0-4.4-4.63L372.61,52C367.82,47.79,365.26,45.54,365.26,45.54Z"/><path class="cls-1" d="M406.59,45.54l5.94,7c.94,1.15,2.11,2.35,3.18,3.84l3.52,4.88c1.24,1.78,2.73,3.6,4,5.72l4.13,6.78A274.79,274.79,0,0,1,444.88,110c5.9,14.39,11.68,30.93,19.23,48.29s17.36,35.45,32,51.15l5.53,5.87.69.74.18.19.08.06.38.35,1.56,1.38,3.13,2.8c2.11,1.81,4.17,3.86,6.36,5.51l6.63,4.91c1.13.81,2.19,1.69,3.37,2.45l3.6,2.24c2.42,1.49,4.78,3.07,7.24,4.54,5.09,2.65,10,5.63,15.45,7.95,21.17,10.12,44.89,16.83,68.37,26.38a234,234,0,0,1,34.56,17c11.24,6.61,21.34,15.08,30.88,24l6.57,7.2,3.2,3.54,3,4c2,2.65,4.09,5.25,6,7.94l5.27,8.24a231.43,231.43,0,0,1,17,34.55c9.58,23.48,16.27,47.2,26.39,68.36a166.74,166.74,0,0,0,39,54.24c15.62,14.56,33.86,24.33,51.1,31.95s33.9,13.32,48.29,19.23a274.07,274.07,0,0,1,36.32,17.5l6.77,4.12c2.12,1.3,3.94,2.78,5.72,4s3.38,2.44,4.87,3.52,2.69,2.24,3.86,3.19l7,5.94-7.27-5.54c-1.21-.87-2.47-2-4-3l-5-3.23c-1.84-1.13-3.72-2.48-5.89-3.67l-6.87-3.81a272.46,272.46,0,0,0-36.68-15.8c-14.53-5.24-31.31-10.29-49.11-17.62S802.79,524,785.91,509A167.45,167.45,0,0,1,744,453.29c-10.7-21.84-18-45.63-27.33-68.51a223.81,223.81,0,0,0-16.48-33.14l-5-7.77c-1.76-2.5-3.68-4.84-5.5-7.27L686.93,333l-3.21-3.52-6.31-6.88c-9-8.45-18.4-16.49-29-22.79a222.84,222.84,0,0,0-33.14-16.48c-22.88-9.38-46.67-16.64-68.51-27.34-5.53-2.47-10.7-5.65-16-8.48-2.55-1.58-5-3.24-7.51-4.86l-3.71-2.45c-1.22-.83-2.37-1.82-3.55-2.71L509,232c-2.29-1.83-4.2-3.84-6.29-5.74l-3.06-2.86L498.15,222l-.38-.36-.3-.29-.18-.2-.71-.79c-1.89-2.11-3.77-4.2-5.63-6.29-14.86-16.8-24.42-35.91-31.73-53.63s-12.38-34.58-17.62-49.12a272.18,272.18,0,0,0-15.81-36.67c-1.34-2.42-2.61-4.72-3.81-6.87s-2.53-4-3.66-5.88-2.25-3.49-3.23-5-2.08-2.81-3-4Z"/><path class="cls-1" d="M441.67,45.54l4.59,7.25a218.87,218.87,0,0,1,11.42,21.46c4.39,9.52,9.11,21.35,14.34,34.92,2.64,6.79,5.45,14,8.59,21.47,1.57,3.75,3.3,7.52,5,11.43,1.9,3.79,3.64,7.78,5.77,11.65,8.28,15.54,19.14,31.62,33.94,45,3.85,3.37,7.64,7.09,11.79,9.91l6.14,4.57c2.17,1.43,4.42,2.79,6.64,4.19a210.92,210.92,0,0,0,28.73,14.77c20.31,8.69,42.53,15.14,64.53,24.41,22,8.92,43.48,22,61.06,39.22l6.17,6.77,3,3.31c1,1.1,1.91,2.44,2.87,3.64L721.9,317c1.79,2.51,3.34,5.13,5,7.69,3.46,5,6.06,10.55,9,15.83,2.52,5.47,5.3,10.84,7.46,16.38,9.29,22,15.73,44.21,24.42,64.51s19.68,38.56,33.39,53.24l2.5,2.81,2.66,2.52,5.47,5.19c1.84,1.62,3.71,3.06,5.55,4.58s3.61,3,5.6,4.37c3.83,2.76,7.61,5.5,11.57,7.82,3.84,2.5,7.83,4.6,11.72,6.71s7.86,3.87,11.65,5.77c3.9,1.69,7.68,3.41,11.43,5,7.49,3.15,14.68,6,21.46,8.59,13.58,5.25,25.41,10,34.92,14.35a216.37,216.37,0,0,1,21.46,11.43l7.26,4.59-7.52-4.15C942,551.5,934.6,548,925,544s-21.59-8.1-35.39-12.74-29.5-9.77-45.8-17.79c-4.05-2-8.22-4.06-12.27-6.52-4.17-2.25-8.17-5-12.25-7.71a71.32,71.32,0,0,1-6-4.44c-2-1.56-4.06-3.1-6-4.73L801.69,485l-2.92-2.65-2.68-2.86c-14.69-15-26.88-34-35.92-54.79S744,381.76,735,360.44c-2.14-5.4-4.83-10.51-7.28-15.78-2.86-5-5.36-10.28-8.66-15-1.6-2.4-3.09-4.92-4.76-7.24l-5.2-6.77c-.9-1.12-1.66-2.28-2.67-3.38l-3-3.3-5.91-6.44C681,286.2,661,273.8,639.55,265c-21.31-9.05-43.48-16-64.27-25.2-10.32-4.7-20.42-9.67-29.57-15.83-2.3-1.52-4.6-3-6.85-4.55l-6.48-5.06c-4.48-3.26-8-6.94-11.83-10.42-15.41-14.53-26-31.54-34-47.78s-13.07-32-17.79-45.79S459.94,84.63,456,75s-7.5-17-10.18-21.93Z"/><path class="cls-1" d="M472.82,45.54l3.59,7.23c2.26,4.75,5.54,11.77,9.16,20.91s7.84,20.31,13,32.92,11.5,26.62,20.37,40.63a166.05,166.05,0,0,0,15.5,20.59c1.4,1.73,3.07,3.23,4.6,4.9l2.35,2.45,1.09,1.12,1.31,1.17c3.52,3,7,6.46,10.7,9.32a168.82,168.82,0,0,0,24.17,15.76l6.61,3.51,6.88,3.19c4.55,2.23,9.38,4.08,14.18,6.06,19.3,7.73,40.25,13.93,60.84,22.88s40.46,21.08,57.21,37.7l5.67,6.22a78.76,78.76,0,0,1,5.55,6.46c3.53,4.66,7.26,9.24,10.17,14.16,6.42,9.55,11.31,19.87,16,30.06,9,20.59,15.15,41.54,22.88,60.84s16.84,37.16,28.62,51.94c2.87,3.73,6.15,7,9.14,10.52l1.15,1.29,1.17,1.13,2.5,2.41c1.69,1.54,3.28,3.29,5,4.66A167.67,167.67,0,0,0,852.75,481c14,8.88,28.08,15.12,40.64,20.38s23.81,9.33,32.92,13,16.15,6.9,20.91,9.16l7.23,3.59L947,524c-4.86-2-12.08-4.67-21.35-7.9s-20.6-6.86-33.53-11.48-27.48-10.3-42.2-19c-3.65-2.23-7.41-4.46-11-7.09-3.71-2.44-7.27-5.38-10.93-8.29-1.88-1.43-3.44-3-5.18-4.57l-2.57-2.34-1.36-1.26-1.22-1.31c-3.21-3.54-6.73-6.93-9.82-10.75-12.7-15.14-22.81-33.6-30.87-53.27s-14.82-40.35-23.52-60.29c-4.59-9.82-9.31-19.69-15.45-28.67-2.81-4.72-6.22-8.79-9.45-13.07a72.3,72.3,0,0,0-5.43-6.26l-5.69-6.2-5.87-5.36a71.31,71.31,0,0,0-6.15-5.36c-4.33-3.28-8.52-6.76-13.2-9.55-9-6.14-18.86-10.86-28.68-15.45-19.93-8.72-40.61-15.41-60.29-23.53s-38-18.08-53.36-30.95c-3.84-3.12-7.08-6.5-10.57-9.66L538,181.2c-.63-.62-.87-.93-1.32-1.41l-2.39-2.61c-1.56-1.77-3.23-3.41-4.63-5.25a172.19,172.19,0,0,1-15.32-21.87c-8.74-14.72-14.36-29.32-19-42.2s-8.21-24.28-11.47-33.53S477.94,57.85,476,53Z"/><path class="cls-1" d="M501.6,45.54l2.95,7c1.88,4.58,4.66,11.29,8,19.88s7.46,19,12.88,30.56c2.8,5.73,5.8,11.82,9.49,17.92a166.39,166.39,0,0,0,12.44,18.54,149.33,149.33,0,0,0,16.14,17.85q4.8,4.22,9.74,8.59l10.41,7.71c14.67,10,31.89,17.69,50.23,24.56s38,12.86,57.2,21.73,37.73,20.28,53.43,35.94c3.53,4,7.15,7.66,10.57,11.84l5,6.55,2.49,3.28,2.19,3.41,4.35,6.8c1.47,2.25,2.61,4.68,3.93,7s2.61,4.67,3.75,7.07l3.37,7.19c8.89,19.19,14.75,38.89,21.73,57.2s14.56,35.55,24.56,50.22l7.81,10.52,8.42,9.54c1.19,1.47,2.94,3,4.36,4.43s3,3,4.48,4.22L856,449l4.61,3.65a167.44,167.44,0,0,0,18.54,12.45c6.1,3.68,12.19,6.68,17.92,9.48,11.55,5.43,22,9.51,30.55,12.89s15.31,6.11,19.88,8l7,3-7.16-2.48L927,489.18c-8.75-2.95-19.39-6.5-31.36-11.39s-25.25-11.33-38.28-20.8l-4.91-3.6-4.86-4c-1.7-1.32-3.17-2.74-4.73-4.14s-3.1-2.68-4.69-4.44q-4.47-4.75-9.06-9.68l-8.44-10.76c-10.85-15-19.36-32.74-26.55-51.28s-13.68-37.9-22.25-56.38l-3.29-6.9c-1.1-2.3-2.42-4.48-3.62-6.73s-2.36-4.53-3.77-6.66L757,286l-2.08-3.21-2.3-3-4.58-6c-3.25-4-7-7.77-10.53-11.67l-5.5-5c-1.92-1.68-3.67-3.57-5.74-5.08l-6.07-4.67-3-2.33L714,243l-6.43-4.15c-2.12-1.41-4.44-2.51-6.65-3.78s-4.43-2.52-6.73-3.62l-6.91-3.28c-18.47-8.59-37.85-15-56.37-22.27s-36.24-15.7-51.27-26.54l-10.88-8.53-9.49-8.9A153.09,153.09,0,0,1,543,142.64c-9.47-13-15.79-26.38-20.79-38.27S513.76,81.76,510.81,73s-5.18-15.63-6.73-20.32Z"/><path class="cls-1" d="M529.19,45.54s.92,2.29,2.66,6.57l7.66,18.52a261.56,261.56,0,0,0,13.67,27.79c2.8,5.27,6.47,10.44,10.18,16,1.94,2.7,4.16,5.3,6.29,8.06,1.1,1.35,2.12,2.79,3.32,4.11l3.72,3.92,3.79,4,1.83,1.94,2.16,1.9c2.9,2.52,5.82,5.17,8.85,7.72l9.49,7c3.33,2.24,6.89,4.33,10.38,6.55,14.37,8.42,30.74,15,48.07,21.25S696.94,193,714.83,201.5s35.21,19.65,49.6,34.06l5.13,5.62c1.65,1.85,3.34,3.6,5,5.53,3.07,4.11,6.38,8.13,9.21,12.33a201,201,0,0,1,14.77,26.11c8.55,17.89,14.42,36.28,20.69,53.58s12.84,33.69,21.25,48.06c2.22,3.5,4.3,7,6.56,10.39s4.76,6.44,7.08,9.58c2.51,3,5.1,5.84,7.58,8.69l1.86,2.12,2,1.88,4.07,3.86,4,3.78c1.33,1.2,2.74,2.19,4.08,3.29,2.74,2.11,5.31,4.3,8,6.24a188.86,188.86,0,0,0,16,10.18,260.58,260.58,0,0,0,27.78,13.67c15.9,6.69,25.09,10.33,25.09,10.33l-6.75-2.18c-4.41-1.43-10.88-3.49-19-6.43a264.67,264.67,0,0,1-28.77-12.29c-5.52-2.56-11-6-16.87-9.52-2.9-1.83-5.68-4.05-8.63-6.15-1.45-1.08-3-2.12-4.4-3.29l-4.13-3.62-4.21-3.69-2.24-2-2-2.12c-2.69-2.85-5.49-5.71-8.23-8.72l-7.69-9.75c-2.44-3.42-4.71-7-7.12-10.62-9.17-14.69-16.54-31.42-23-48.82s-12.88-35.32-21.12-52.51A190,190,0,0,0,776,264.3c-2.67-3.93-5.68-7.5-8.49-11.3-3.15-3.59-6.79-7.42-9.8-10.75-13.49-13.64-29.69-24.3-46.86-32.51s-35.12-14.57-52.51-21.12-34.13-13.86-48.81-23c-3.6-2.42-7.2-4.68-10.63-7.13-3.33-2.63-6.61-5.23-9.84-7.77-3-2.71-5.76-5.44-8.57-8.08l-2.08-2-2-2.27-3.77-4.29L569,129.89c-1.18-1.41-2.18-2.94-3.27-4.38-2.08-2.93-4.27-5.68-6.09-8.57a192.33,192.33,0,0,1-9.53-16.86A264.45,264.45,0,0,1,537.81,71.3c-2.95-8.14-5-14.61-6.44-19S529.19,45.54,529.19,45.54Z"/><path class="cls-1" d="M556.66,45.54s.93,2.1,2.66,6.06c.85,2,1.95,4.41,3.3,7.22s2.84,6.07,4.69,9.63A190.58,190.58,0,0,0,582.1,93.18l5.1,6.89,5.89,6.9c2,2.38,4.33,4.54,6.55,6.91,1.12,1.1,2.27,2.48,3.42,3.4l3.85,3.38,3.93,3.44,2,1.75,2.12,1.54,8.6,6.27,9.46,5.86c3.21,2,6.7,3.6,10.11,5.46,13.87,7,29.37,12.68,45.59,18.44s33.32,11.5,49.89,19.74c4.12,2.09,8.18,4.39,12.29,6.59l11.87,7.57c3.74,2.86,7.54,5.68,11.25,8.6l10.66,9.7L794,225.83c2.94,3.74,5.83,7.61,8.72,11.41q3.8,5.94,7.58,11.87c2.2,4.11,4.5,8.17,6.59,12.29,8.25,16.57,14,33.69,19.74,49.89S848,343,855,356.88c1.86,3.4,3.49,6.89,5.47,10.1l5.85,9.46,6.34,8.69,1.55,2.12,1.72,2,3.39,3.86,3.31,3.79c.91,1.15,2.32,2.33,3.44,3.48,2.4,2.24,4.64,4.66,7,6.61l6.85,5.83,6.89,5.11a189.26,189.26,0,0,0,24.73,14.79c3.55,1.86,6.81,3.35,9.62,4.69s5.24,2.46,7.22,3.31l6.06,2.66-6.25-2.19c-2.05-.69-4.55-1.59-7.46-2.74s-6.31-2.39-10-4.07a191.51,191.51,0,0,1-25.9-13.52L897.53,416l-7.48-5.66c-2.61-1.92-4.83-4.18-7.36-6.34-1.24-1.17-2.46-2.06-3.75-3.48l-3.59-3.77-3.67-3.86-1.87-2-1.7-2.12c-2.27-2.87-4.6-5.78-7-8.75l-6.42-9.62c-2.14-3.27-3.93-6.81-6-10.29-7.7-14.13-14-29.83-20-46s-12.17-32.77-20.09-48.65c-2-3.94-4.24-7.79-6.37-11.7-2.41-3.72-4.81-7.46-7.24-11.2l-8-10.43L777.69,222l-9.7-8.9-10.57-8.18-11.2-7.24c-3.92-2.12-7.76-4.34-11.7-6.37-15.87-7.93-32.48-14.06-48.66-20.09s-31.89-12.33-46-20c-3.47-2-7-3.82-10.29-6l-9.62-6.41c-3-2.38-5.93-4.73-8.82-7L609,130.09l-1.91-1.83-3.79-3.61a145.17,145.17,0,0,1-24.08-29.53,193.22,193.22,0,0,1-13.52-25.89c-1.68-3.67-3-7-4.07-10s-2.06-5.42-2.75-7.46Z"/><path class="cls-1" d="M585,45.54,587.86,51c1.87,3.53,4.81,8.59,8.72,14.9a168.19,168.19,0,0,0,16.09,21.24c1.73,1.9,3.47,3.9,5.45,5.77l2.94,2.92.75.74.18.19.13.11.41.35,1.65,1.41,6.77,5.87,1.74,1.52,1.84,1.34,3.74,2.72c4.88,3.83,10.64,7.06,16.39,10.6l9.16,4.78c3.07,1.67,6.41,3,9.66,4.51,13.22,5.85,27.73,10.77,42.81,16.12s30.85,11,46.05,18.94a189.58,189.58,0,0,1,22.16,13.51c3.44,2.68,7,5.19,10.37,8l9.88,9,8.59,9.46c2.81,3.27,5.43,7,8.13,10.46A190.17,190.17,0,0,1,835,237.65c8,15.2,13.57,31,18.94,46.06s10.28,29.58,16.13,42.79c1.53,3.26,2.84,6.6,4.51,9.67s3.21,6.15,4.78,9.16c3.54,5.75,6.74,11.49,10.63,16.43l2.74,3.77,1.36,1.86,1.49,1.71,5.78,6.66a83.83,83.83,0,0,0,5.77,6.12c1.91,2,3.89,3.72,5.78,5.44a167.2,167.2,0,0,0,21.22,16.09c6.3,3.91,11.37,6.85,14.9,8.71l5.43,2.85-5.66-2.38c-3.66-1.61-9-4-15.61-7.6a169.79,169.79,0,0,1-22.58-15c-2.06-1.65-4.24-3.33-6.25-5.2s-4.28-3.69-6.28-5.88a139.91,139.91,0,0,1-12.41-13.86c-4.26-4.95-7.83-10.71-11.77-16.52-1.74-3-3.49-6.13-5.28-9.28s-3.28-6.49-5-9.8c-6.45-13.37-12-27.95-17.55-42.9s-11.58-30.14-19.21-44.66A181.35,181.35,0,0,0,814,221c-2.54-3.19-4.81-6.46-7.55-9.63l-8.64-9.41-9-8.23c-3.12-2.71-6.51-5.08-9.74-7.64a179.66,179.66,0,0,0-21-13c-14.52-7.65-29.73-13.64-44.66-19.21s-29.53-11.11-42.91-17.55c-3.31-1.69-6.66-3.13-9.8-5l-9.28-5.29c-5.81-3.94-11.54-7.5-16.55-11.8A140,140,0,0,1,621.12,102l-1.55-1.52-.39-.37-.26-.26-.18-.2-.73-.81-2.82-3.18c-1.91-2-3.56-4.2-5.2-6.25A171.41,171.41,0,0,1,595,66.8c-3.59-6.57-6-12-7.6-15.62Z"/><path class="cls-1" d="M615.44,45.54l3.2,4.62c2,3.09,5.35,7.29,9.57,12.59a149.24,149.24,0,0,0,17.1,17.42,119.16,119.16,0,0,0,11.78,9.38l6.53,4.67,7.25,4.4a224.86,224.86,0,0,0,33.68,16c12.36,4.87,25.78,9.23,39.64,14.2s28.23,10.53,42,18.15l5.2,2.83,5,3.2a105.52,105.52,0,0,1,9.88,6.73l4.79,3.64a43.62,43.62,0,0,1,4.65,3.81l9.08,8.27,7.88,8.67a47.94,47.94,0,0,1,3.81,4.63l3.69,4.86a106.45,106.45,0,0,1,6.78,9.94l3.2,5,2.82,5.2c7.64,13.78,13.15,28.19,18.16,42s9.34,27.27,14.2,39.64a225.33,225.33,0,0,0,16,33.68l4.4,7.24,4.71,6.58a117.75,117.75,0,0,0,9.32,11.71,116.64,116.64,0,0,0,9.09,9.63c2.89,2.93,5.83,5.2,8.35,7.49,5.3,4.23,9.51,7.59,12.58,9.58l4.62,3.2-4.89-2.77a138.54,138.54,0,0,1-13.45-8.56,151.16,151.16,0,0,1-18.87-16.15,121.78,121.78,0,0,1-10.36-11.34c-1.72-2.09-3.48-4.25-5.22-6.5L896.77,332l-2.52-3.75-2.3-4c-1.51-2.69-3.19-5.38-4.67-8.22-2.88-5.72-5.82-11.66-8.44-17.91-5.4-12.44-10.35-25.8-15.48-39.44A313.3,313.3,0,0,0,845,218.2l-2.73-4.94-3.07-4.74a97.86,97.86,0,0,0-6.4-9.25l-3.39-4.42a41.7,41.7,0,0,0-3.64-4.39l-7.93-8.62-8.22-7.54a40.92,40.92,0,0,0-4.36-3.63l-4.5-3.46a99.26,99.26,0,0,0-9.3-6.44l-4.74-3.07L781.8,155a309.42,309.42,0,0,0-40.51-18.35c-13.64-5.14-27-10.1-39.44-15.49-6.25-2.62-12.19-5.55-17.9-8.45-2.84-1.47-5.53-3.15-8.22-4.66l-4-2.3L668,103.21l-7.24-4.89c-2.27-1.74-4.44-3.53-6.55-5.26A121.44,121.44,0,0,1,643,82.76a150.46,150.46,0,0,1-16.18-18.89,139.14,139.14,0,0,1-8.56-13.44Z"/><path class="cls-1" d="M649.36,45.54l3.48,3.7c1.12,1.21,2.51,2.71,4.28,4.32l2.77,2.66a39.25,39.25,0,0,0,3.22,2.88c2.36,2,5,4.18,7.83,6.58s6.22,4.47,9.64,7a207.85,207.85,0,0,0,24.74,14.07c9.54,4.3,20,8.63,31.39,12.59s23.52,7.91,36,12.66,25.36,10,37.68,17.16a182.34,182.34,0,0,1,34.39,26.09l7.25,8a93.61,93.61,0,0,1,6.82,8.44c4.66,5.76,8.26,11.91,12,18,7.17,12.31,12.4,25.24,17.17,37.68s8.58,24.65,12.67,36c3.94,11.4,8.28,21.84,12.58,31.38a207,207,0,0,0,14.08,24.76c2.5,3.43,4.68,6.78,7,9.65s4.56,5.43,6.52,7.78,4,4.24,5.57,6,3.11,3.15,4.32,4.27l3.69,3.48-4-3.09c-1.33-1-3-2.25-4.75-3.84a78,78,0,0,1-6.14-5.54l-7.27-7.31c-2.61-2.69-5-6-7.83-9.3L922.35,319l-1.94-2.81-4.06-5.86a67.33,67.33,0,0,1-3.94-6.39q-1.95-3.31-4-6.8a303.39,303.39,0,0,1-14.35-31.34c-4.39-11.28-9-23.18-13.82-35.48A279.56,279.56,0,0,0,863,194.21c-3.61-5.69-7.15-11.62-11.4-16.76a81.79,81.79,0,0,0-6.48-7.92l-7-7.62A173.79,173.79,0,0,0,805.79,137a276.91,276.91,0,0,0-36.09-17.3l-35.49-13.83a303.39,303.39,0,0,1-31.34-14.35l-6.8-4a73.23,73.23,0,0,1-6.39-4l-5.86-4.06L681,77.64l-2.59-2.1c-3.34-2.82-6.65-5.26-9.33-7.85l-7.25-7.21a81.46,81.46,0,0,1-5.58-6.17c-1.6-1.8-2.82-3.42-3.83-4.75Z"/><path class="cls-1" d="M688.79,45.54l3.62,2.57,4.36,3.09,2.77,2,3.26,2,7.59,4.6,9.28,4.85c3.31,1.7,7,3.21,10.79,5s8,3.24,12.21,5c8.63,3.22,18.05,6.45,28.12,9.85s20.75,7,31.61,11.36A213.84,213.84,0,0,1,835,111.83l7.89,5.12c2.61,1.75,5,3.79,7.58,5.68l3.77,2.9c1.21,1,2.36,2.12,3.55,3.18l7.19,6.57,6.24,6.85c1,1.15,2.08,2.25,3.1,3.46l2.95,3.82c1.92,2.56,4,5.05,5.76,7.67l5.12,7.89a212.47,212.47,0,0,1,16.08,32.63c4.41,10.86,8,21.56,11.37,31.61s6.63,19.49,9.84,28.12c1.74,4.24,3.3,8.38,5,12.2s3.26,7.49,5,10.81l4.85,9.27c1.68,2.77,3.21,5.32,4.61,7.61l2,3.27,1.94,2.75c1.21,1.71,2.25,3.16,3.08,4.35,1.68,2.36,2.57,3.63,2.57,3.63l-3-3.31q-1.47-1.62-3.59-4l-2.27-2.53-2.31-3.09-5.39-7.24-5.7-9c-2-3.24-3.82-6.84-5.91-10.57s-3.82-7.87-5.87-12.08c-1.87-4.27-3.84-8.72-5.77-13.36s-3.75-9.48-5.7-14.44c-3.85-9.91-7.9-20.29-12.42-30.8a232.51,232.51,0,0,0-16.15-31l-4.92-7.43c-1.68-2.45-3.58-4.65-5.35-7l-2.71-3.49c-1-1.15-2.08-2.27-3.11-3.4l-6.29-6.8-6.45-6c-1.11-1-2.18-2.06-3.32-3l-3.53-2.76c-2.38-1.8-4.65-3.75-7.1-5.43l-7.43-4.92a231.53,231.53,0,0,0-31-16.16c-10.5-4.51-20.88-8.58-30.8-12.41L754,85.3c-4.64-1.92-9.09-3.89-13.37-5.77-4.2-2-8.31-3.84-12.07-5.87s-7.34-3.91-10.58-5.91l-9-5.69-7.27-5.41c-1.08-.82-2.11-1.59-3.08-2.31l-2.53-2.26c-1.57-1.4-2.9-2.6-4-3.57Z"/><path class="cls-1" d="M737.79,45.54,741.14,47c2.19.93,5.38,2.42,9.52,4s9.14,3.49,14.93,5.61,12.44,4.17,19.67,6.53,15.12,4.78,23.4,7.71,17,6.09,25.83,10.16a179.7,179.7,0,0,1,26.3,14.4A173.34,173.34,0,0,1,885,115.05l5.28,5.71,2.57,2.81,2.49,3.1c1.63,2.07,3.34,4.1,4.88,6.19l4.42,6.35A178.74,178.74,0,0,1,919,165.5a275.05,275.05,0,0,1,10.16,25.83c2.93,8.28,5.38,16.16,7.72,23.41s4.52,13.83,6.52,19.67,3.91,10.85,5.61,14.94,3.06,7.31,4,9.5l1.46,3.36s-.66-1.08-1.92-3.11-3.2-5-5.23-8.94-4.62-8.75-7.27-14.39l-4-9.05-4.22-10.12c-2.85-7-5.95-14.68-9.22-22.76s-6.95-16.37-11.08-24.76A200.55,200.55,0,0,0,897,144.34l-4.23-6c-1.47-1.93-3-3.75-4.55-5.63L886,129.93l-2.59-2.76-5.1-5.43A165.07,165.07,0,0,0,855.67,103a199.4,199.4,0,0,0-24.75-14.45c-8.38-4.13-16.72-7.81-24.76-11.08L783.4,68.22,773.28,64l-9-4c-5.63-2.65-10.48-5.09-14.4-7.27s-6.86-4-8.92-5.23Z"/><path class="cls-1" d="M804.24,45.54s3.42.82,9.36,2.39c3,.8,6.57,1.77,10.66,3l6.54,1.94L838,55.29c5,1.59,10.38,3.76,16,6.07,2.86,1.07,5.62,2.59,8.54,3.92a87.68,87.68,0,0,1,8.75,4.53l8.8,5.2c2.95,1.81,5.72,4,8.58,6.06L893,84.24c1.39,1.12,2.69,2.35,4,3.53l8.2,7.36,7,7.81c1.15,1.31,2.34,2.55,3.45,3.92l3.23,4.35c2.1,2.89,4.34,5.71,6.15,8.67l5.2,8.81a88.71,88.71,0,0,1,4.53,8.75c1.33,2.92,2.85,5.69,3.92,8.54,2.3,5.64,4.48,11,6.07,16q1.26,3.76,2.41,7.19l1.94,6.54c1.22,4.1,2.21,7.7,3,10.67,1.57,5.93,2.39,9.35,2.39,9.35s-1.57-3.15-4.17-8.71l-4.62-10c-1.73-3.89-3.79-8.23-6-13s-4.82-9.71-7.42-15c-1.25-2.7-2.94-5.23-4.43-7.94s-2.93-5.54-4.8-8.14-3.55-5.39-5.35-8.14a46.91,46.91,0,0,0-2.95-3.9l-3-3.91-3-4c-1.08-1.3-2.32-2.56-3.48-3.84l-7.1-7.7-7.31-6.72c-1.25-1.13-2.45-2.33-3.74-3.4l-4-3.05c-2.7-2-5.22-4.15-7.92-6L867.06,77c-2.61-1.86-5.5-3.19-8.14-4.8S853.68,69,851,67.73c-5.33-2.61-10.27-5.31-15-7.42s-9.06-4.27-13-6L813,49.7C807.39,47.1,804.24,45.54,804.24,45.54Z"/><path class="cls-1" d="M875,45.54s1.78.47,4.8,1.47c1.5.5,3.35,1.09,5.41,1.87,1,.38,2.14.75,3.29,1.23s2.31,1.1,3.55,1.7c2.48,1.2,5.18,2.5,8,4s5.51,3.42,8.39,5.33q2.13,1.48,4.34,3c1.46,1,2.77,2.27,4.15,3.44L921,71.19,925.27,75c2.39,2.67,4.79,5.33,7.09,8,1.15,1.36,2.33,2.58,3.37,4.06l3,4.4c2,2.91,3.88,5.71,5.41,8.48s2.8,5.46,4,7.93c.59,1.23,1.16,2.42,1.71,3.54s.85,2.29,1.24,3.33c.79,2.08,1.38,3.94,1.88,5.45,1,3,1.47,4.79,1.47,4.79s-1.22-1.41-3.14-3.93c-1-1.26-2.14-2.78-3.39-4.56s-2.76-3.72-4.42-5.81-3.44-4.35-5.2-6.79-4-4.62-6.07-7.14L929.13,93c-1.06-1.27-2.4-2.5-3.57-3.79-2.45-2.54-4.87-5.19-7.29-7.82L914.59,78c-1.26-1.19-2.51-2.38-3.76-3.55s-2.41-2.43-3.7-3.5l-3.85-3.17c-2.54-2-4.84-4.3-7.22-6.14s-4.66-3.52-6.75-5.17-4-3.21-5.83-4.45-3.34-2.44-4.61-3.4C876.34,46.74,875,45.54,875,45.54Z"/><path class="cls-1" d="M927.63,45.54a14,14,0,0,1,1.85.33,32.18,32.18,0,0,1,4.45,1.37,24.41,24.41,0,0,1,5.59,3,49.67,49.67,0,0,1,5.67,4.58c1,1.1,1.66,1.81,2.43,2.79s1.43,1.84,2.07,2.77a27.15,27.15,0,0,1,3,5.63,31.07,31.07,0,0,1,1.42,4.53,12.82,12.82,0,0,1,.32,1.85,16,16,0,0,1-1.78-.66,33.28,33.28,0,0,1-4.08-2.09c-.78-.47-1.58-1-2.4-1.6s-1.75-1.21-2.62-1.91-1.78-1.43-2.64-2.23-1.8-1.75-2.43-2.38a44.58,44.58,0,0,1-4.5-5c-1.27-1.75-2.56-3.48-3.56-5.07a32,32,0,0,1-2.16-4.14A15.14,15.14,0,0,1,927.63,45.54Z"/></svg>